<mxfile host="65bd71144e">
    <diagram id="2zf4Vz2Yxu02cwbZbFAi" name="4.1">
        <mxGraphModel dx="718" dy="336" grid="1" gridSize="10" guides="1" tooltips="1" connect="1" arrows="1" fold="1" page="1" pageScale="1" pageWidth="850" pageHeight="1100" math="0" shadow="0">
            <root>
                <mxCell id="0"/>
                <mxCell id="1" parent="0"/>
                <mxCell id="3" value="" style="shape=image;verticalLabelPosition=bottom;labelBackgroundColor=#ffffff;verticalAlign=top;aspect=fixed;imageAspect=0;image=data:image/png,iVBORw0KGgoAAAANSUhEUgAAA7UAAAA4CAYAAAAin9+uAAAAAXNSR0IArs4c6QAAAARnQU1BAACxjwv8YQUAAAAJcEhZcwAADsMAAA7DAcdvqGQAACu8SURBVHhe7Z0NeFTVue//hnpU5AG/Mig1mNI2fMV40Jqm6VD1gAF61QAZazmenOCNaRAaQ9OYgNOUUppCYoxgDmIacyXNQyk1QFCPQA4cQSI3DSrHNHwkx3JHYlESlMJNo1zKeNfaHzN775nZs2dm70kmvL/nycNMmOxZ613v+653vevriq6uri9BEARBEARBEARBEDFInPQvQRAEQRAEQRAEQcQcNKglCIIgCIIgCIIgYhYa1BIEQRAEQRAEQRAxCw1qCYIgCIIgCIIgiJiFBrUEQRAEQRAEQRBEzEKDWoIgCIIgCIIgCCJmoUEtQRAEQRAEQRAEEbPQoJYgCIIgCIIgCIKIWWhQSxAEQRAEQRAEQcQsNKglCIIgCIIgCIIgYhYa1BIEQRAEQRAEQRAxyxVdXV1fSq8JIrYZcKGttRvnhTd/RUdjDXbc8Qx2FqdhlPA7giCIy4RY8Yfkt4loo9I5N853vALnjqlo2LkUaaNorscySO5EMCLUERMHtRdxumU1HAWb0IsEzK1pREXGLdL/WYy7D517XkXjqn1I2lCL3OSR0n9cPlzqrMesrEr0SO+NYUNqXgGyU64DRozDtPuSER+LfuVSJ+pnZaHSp/JR1kOCIIjBJlb8IfltIup8jJbSbBQ0+0ZKtrwGSqRYBsmdCIY5OmLaEMZ9+k08v4oPaKMIH9E3VSF7sh1ZBZVojuqXDy1GJOdiT1cXug7vRE2eXfqthC0fDe8eQxf/f8XPsdYNWJgyEj17a1CwOAv2ydORXbUDnX0XpT+MEUYkI3ePVK/Dr6Ak1Sb9x1TcnXSD9JoghgIX4GoqxMSJEz0/00u348SAW/p/goiQWPGH5LeJCHG7mpCr8KUTp5diY0cfAnvTW5BRscePziUgPeU2GlhZBsmdCIY5OmLOoHagG9uqa9AUpUGlu68TLfWlmD5tFnKcdWiXfk8wRk7ATMccKIe1tsx0JPuZto+LT8aMjAeQW7ENrVsrkZcKtNeVIMu+CFUtJzAgfS6muIrV82NJEe3T8a3xV4mvCWIo4P4L3tn5nvSGkbocG1ZkYsLIWFwiQQx5YsUfkt8mQuYCTr5zAK3SO6Y4yH+mCP+aEm8ssL16FMb8g/SaEinRg+ROBCMCHTEhkjqPzs3PwtncLb23CjcGXO3YxQaz99izUFDZHN1Z4Rjiy/5z+FB6bSzLcSXikzNRVF2BfCE70oq6gkKsbOqOuYGtu+c4DgqrF2ywz7kT42msQAwh3Cffw85WyXOlFqCh+lEk04CWsIhY8YfDyW+7+97DxtIHDc4cEuEzgE9c8lLFJDhqVmFp2ljjQe1AL1zdlEiJOiR3IhgR6EiEXQcbaHZuQ0XlPum9FVxEX+ebaKrKw7RZ2SikwWwQ3PicDWovSO9CyXLExadjaVUZHMKsfzeanRV4se10DHXIysxtItIn3WzSUoTYwn26Bc78JrgokhpiKPTT9ihqqvKRFn+l8D8EYT6x4g+Hk9++hE8P78BqOcnf24zVRa/i6CXxLWEi/V1o3XGEvUjC3PJn4cwYF4LeuNHfeRA7hGCSEuDRg+RuNbEf/0WmIxGpk7uvDS9W1Fu7/Nfdg/2bDwMpj6Cmpob9PIuSuUnSfxK+fAHXkcPegX+oWY6xaViw8F7pXStqn9qE9v4YsQ7l0k7bNExNvFp8fVlxFu2NL+OT+6mzGHLI+mlzoLyhCBljaUBLWEis+MNh5bdH4MZpWVgjn2thm4vl1Q9hygjxLWEWcuBrQ2pJOVY4khDa8aAXceajD6U46fJNgEcfkru1DIf4LzIdCb/a7lPYs3Y1ats9wydriJsAR3kRHBkZyBB+HkBumRN58h5iQo37Exw/6JLeAAnpk5AQUiuPxpQZ93v35PZux/otnbGxDFmxZCHQPuLhzUX0tW3C+roLmHzr9dRZDDHEpcdJyH/mScyfQEdjEBYTK/5wmPntuPgUzCuuFw88OVCBhUb3eBIhcA6drYeQmF+B6sdSQhzQMigBPjiQ3C1kmMR/EepImPW+iNN7XsKqps+RmjpV+l0UGWlDYhKNav2h2rOHqZg99asINUkcN/5OzLHL8u1F+8Y96Bjys7XKJQtTkWmfeNmdqMdPIF/7VA3abXbYk8dIvyWGBnyJ5QeY2vDr0PZ9EURYxIo/JL9NhEF/Fw6e/QFWLkoL6xpCZZx0eSbABweSu3UMl/gvUh0Jxx1g4MTrqF61CXAU4alHb5d+H0XirsHom2hzuS/KvUmMcJU77nrcOjleesPobUVr5znpzVCFZ25bxSULl92gjh+i1oLq4lXCCeTUWQxFrkKiYxmKaEBLRIVY8YeXs98mwmZUGorK54V5arwyTqJESvQguVvDcIr/IteR0Gs+0InNK6rRjEdR9uR9uIUitCGE8jRARnoyvh6Wco/EzYkJ0mvOEew68hcM6bMuLv0FR3bxQyMYSeNx82Vxoqx8IvhyzJpVgDphKwB1FgRx2RMr/vCy9NvE4KKMk25HytdHS68JayG5m8twjP8i15EQexB+fc96VLZPQcmGpcgY67lIiBgKeE4D5Nhgv/sbuFF6FxpfwbWjr5Nei/R0n8Jn0mtd3H3o3Ps66uUrDSZOR3bVDnT2XZQ+wE+z3o+Wlj+gqmov+qTfBqcfrrYWNFXlqi5arz/oEvb7hn8lBH/uXuGqqOnyc/lPdhWa9naiz/Cqa9nBKJ+Ti6qmFrS5+tn/8/0O/4bcqjb2jZHCytxSjeyJk/2cCH4EdTlpwvdPV32XLPcW8WdXPUqnaz/D4fVoldovF9VBT78W6y20Z/Z0qd78h7f7H7C3U+86i2jKjCO2tSwD8XsL0eTynhUuw+/C3ttUxWTMy/QgSje+F0QXuHz5Ke2ifk4v3Y4TA0GUp78NVawNhHpPr0abzxJ/dZuJ5Z2Pqraz0v9LDLjQ5ikrk1/AO6a18jbSvv4Ip82t0L9YtF2zsMofhtO2ephQTqFPkcvDylF9MGjbul1NyJW/L9foSaCSjkq66a0714U3FX2YH4QySrqt0G//322FLURCmPWOWruICD5ZVUZWvu0diu+U5crK5Nwe+NnKOMl+O5JutPoUr0htaqj4pwjrEXW5R2DPPoRbdytiDvbMIRP/McyM+U3QkRAGtdxwfouKyqNILVmCBcmUZRlaKPcmce7EnG991bylju/24LTuVC1X3B2oypmPrMXbcfbuJdJp1QW44/0qPLH2TZx2X4CrqRj2rB+hoKAGxxK/ZmDQLT03ey7KWv+K62evwTF+AEdXJ1rXp6C7NBv59e046lmyYLTezDEc3MgM+y7MWn8Y/VOfwG7hucdweHc9Ssbth3NxFuw51WgROg49+nGiqQyzuIPZF4+ira1SGV9EzqTP0Vo2hxl6MnvWFiDRFvqhFj6MQmJGERqF72hDQ55iX7u9HLuP8d934UBxGvskl3mh+P2C3AvEn8JKNPdqs3rcWa5F/qxcVApXUrSidvv7+FT8Tw2y88vEtOyt6HEnwlG7X/jersM7UZOXhPa6MizOWoa1fh1jNGUmy4C1dc5ijwyEzsB2G269SXkKMdO3jk1YPj8Li5110snu3WhevQJr95zy7+CZU+/Y+DPMz1oEZ52ohb3N1Sh/w6XbIVxyHcEuyV7VS4b8t5lYXuUSTd4GLajKz0aOp6z8jukKbO48L7zzIretshMM9XTzcNrcCv2LZduNFKv8YaT2rMWMckr6LfQpZdJMRC/aa7dg/0nfoNAL+7tPTjKrFbFNvhU36QpALus/iTq66SzuLmvE7sPHhPofa12Cmw5VI2v+arSc1gTClzpRP5MFcpPtrIySbnv0WztQt8oXh0u49Y5Wu0gMuHCQDQbusWfhF28C95XxuIL9lE/G+8uWoOjlDgzgLNqqHpHkymKLaXcESOQo46RQEz6hYoZNDQX/ZEY9oin3COzZh3DrbmXMMRTiP44kZ9NifnN0xPCfyJuQXXOLsHJB8hDo3Ak1ir1JnIQUTEqI0r5jT1D/EvpmrEPrsXoUO2ZLp1X/AMW19Sj8+xY0tr3vPdXMSLA1cAItVYuYQbwKZP8GtcU/wIxk+STJKxGfsgArNuQCldnIcu4SfmvkCiPxcvwFmPXYahxMX4OdtUVwpCVKOh2HkYl25K4oR0mqDaynRkHZRrQFzOoxp9fZhBXOJib7qchbkot5yjImZ6LIc/dvvPmn0mln530cAd/LuU50wjzo37ocqdL/qPew8c5zNbILaoNf0SW0N1/ykouN+J/YuXs1cmenIlFeOjhyAmY65kgnaDPHWHcAJ1WeOdoyU8qgA7vLZ0u/ZyJQDSaZk26rRdHDv2QOX/qVh25h9s/HwQ+w3y/PxzNn7kKZ6rqxXrQe+kCnQ7iAnuMdEBfaaDsXZXkPYWuJfMUWw7OlgMnwxA6szJaXHSk5ioPHzyg6Q5227T2MI64vpDc6hN3m5urfsLLdULHIH0ZuzxpMKaes3yxYz3SyAUyeV29wBIe69dYNKftCrW1p8JS1hNlREvLWvILWhmI4Mrz1j4v/Gibx+6R7N6Hy9S71NpwRycjdIwaRPgGmTx9ngS8Ol7DrHaV2EWDfJSXtHts3FmW738WBilzMlm/CcBSjobUC0/Y14I2O/1L0g3qxhbIMRhM+YWCKTQ0B/2Sab4iS3CO1ZyUR1d3CmEPJYMR/HEE2Zsf85uiIsb/h1/c8X4Mmvo+26IEwN+cTluI+i4+OeSf2bbOnItHM1R23jcGoK6TXStyn0bZ2GR5efRTp5c9ixcI7fU8jHJmE+U/MwX9vqMFW+WTmIMGWELyuLERBXS8cNatQlDHBTyKFBbGTv4V7Fdt/9bO/vEPejuXzFwiX49vmrkHDikz/+jxyImZk3im+bt+C9a8eC7Ck8xw6dr0qOQL/ewDixt6DvELu1MzfR+I+8xGOeZxhMEcQx1zcJXwsvfM6V+5YN0qdpxLmJLVL2D3tfRCJ+S9j2+pwDusYTJkpl9YrAyupc8nhibsS1AgZ8U68VfMok0IAuCxeXI9Dk3+G6qIfMGf+XUzlnaWELX40rpFe+6A8tl63jtdibMLN0mtvewh3hK+oZgO75XiZBXtdx95EjcM7oP7w3AC+FF6LnVWO8y0k5lUy++tE1+FXxEGfwMfoPhXkEDhT2pwTif4NP9sNBWv8IcO0thUxq5zu03tQ/qN3cHfDOjFYmm3HHR5DHI340TrXPCgDPVXgpsbddxDV+TmsrK1Aaj5qdrPvmpei6b/Oo7N+GXLq5MBRj6sw6vprpdcM3T7OBF8cJpHUOxrtIsLl8ALy+V5BPIKG6gJkJPoOgePi0/CjJbdhxzO/8a5S05O7cg+3VYl/02xqkP2Tmb4hCnI31Z5N9Ysmxhwaoh7/cTyyMTfmN0tHDLQSU4KXV6KgCXCUPY6ZY5XT5sRQQXuVT/AsqB4XcLrnhPRa4qbRuFarLYJyP42c2m7mQ5ajeH7gC9Djrh2N69rbIYfxesEWd05riwpZ8PpX4WJ1Z8Y4I4rK0Ku3lGHOWSZmxGzBEjRXIWFSCsS4S+daI6Uh4k/o+LN22SdHelbCeIy7wcxMg+a062BOw+/sIJfL66h66jDuqNmJw6rZBo2T9LR3K2yOMlQtTfd1ZgLKctmQmp4Em/Jzgyqz8/hzx5+k1wlIvFnUWHElym6MW76ZdWC5yBAy4iNYZxTIisRrzerG5HqduiqxZEOSznIwlb3q7h1RlldqD+GO8CocnlbByroQ6TzYi7sO4yZ4O07xKi+5s+pgnU89aoszkcwH3SPjkTBO1pMggahZbS4Qrv4NR9s1jjX+kGFq25pYzoEOvPz025j2m+VwSPc5q4M3r936ot6Go54V8SKWtVS8Zz+1IOCgiRkQGiv3SW+CXJGnuiOeBYS6y+ci9MVhElG9o9AuIt5gv93mQPnKhUhTJAvVxOGaUdfi4/b3PAG53t383j3crAxmJ/45ZtrUYPons32DxXI31Z5Nrrt5MYcW5fczrI7/OB7ZmBvzc8zSEZ2v4LAKd24T99GyCiydabSTIqKLRrkjztpdQP/Zv0mvRRKSxuEG6bUIT3b8XDB8pOaiNKT74nSCLd5xSs5JcCjBLlb/7BS6JUPQzf7Kp3YLPR8LOAr/JbQEjaFlmkew47VDOO0nfh4xNgHfNtuZq2b79DtzEeXJcpJzFeTSCBSWYrEwqzIGKbMfQip30iW5+H6i7CT7cWLb83iKtzcfVDx5H8YG+C736f2oWyctK7Tdj+wHJuu0YZRlpgwU5E6A61zxi/h7oTbreBFnPvpQCpa0WcsrMTbDifpcr36qE0t6Qai6M9QNflWzG3wvDoTBdCUWqTtbVUAttq2n0+TZVIei8+n/EB1y76EbiJrd5mHq33C0XaNY5Q/NblszyzkyBbn1Kz0Dp9CCNwNLXAe6sa1qtRgABxs03XgH5uXzBYZJmLv8Z8hJvV78vR+M2z8nEl8cJpHW2+p2EZCDbDagZd/tKFuC+Z7vM4Je4kFZXr0yhItVfSQnmv7J7HpYLHdT7dmCNjQt5tAQ1fiPY1HML2CejugXiVe4oh7tIVeAiC6fofuQnNFjRHqynGYps29HISc7eMbrXpSUzkdykKUZ7r+dxxnpdeBgixmNcLo2d076DkXEjf4/d+Kg9C5w9lfxXI5tHvJmJ5qToBnxVUxlHYpMb1MNqrd1+y53jM9AubBx30Q+/QCHFLPzurMIHOUASXCuF5hcfoN99/5CMeiJw8jkhWjsOoBGz4CNt7e8t4c5u4VzYQ80qOAdTHWNcF8a+xLkP5PvOwAZRJn5nrbKdYPJYFqxb9ZR1WkEC1JDCPBCeK5yJoTr95S/7cfzW8ZjrXOmyjbUM7/suxM+xZ7nX8TJheXqAS23GcWMSeBymtzmnLD0b5jariGs8odmt61V5ZRQ2UsISSC/CRte1mfhFA5CMTBoihuLtKJ6dHW9hgp/y+w8XERf91HPIUi69s8J2xeHiwX1NrVdJBQJLJujAE8GnUhx4/P+c8z7SuglcpTl1U34hIMF/nJQ/JMF9bBU7mbqtQV1Z1gWc0Qt/uNw2VgR80uYqCOBS+U+hZZyJ+uophiqADGIqGZegnQuRlAZC0OrZHKyg720ObLwwJRgs8LMIBSnHvq/P1dpNEEcigdl9jfQck/lczlMPoVzkaoXRAlcwmenTkpLNfSQM1sy3Wh2/hTlLQFOyjUNdWAY3BEoBzNcR/4RNx3dhudOPBR8VsX9CVo3b5X29tyJzBkT/cvZxQ/1yBU7GGlPS1HaWD9OZrBkphx48oM1xuALphvPdc/ASj9JO5+Bol6QGkKAp3qu7t4RZXkTkJ4yCkcb92LCT7T+WGlf/LuTcdXel1D592w/h/qpbSZgOU1v83D0b7jarhGUdTfTHzJMbVsLyylhfAZUqWMMPzbrPt2GzRslfUrNwgL7zTpBUAi4e3Bgy38EtyuBCHxxmFhRbzPbRUSRHMFsFObdEyQ5wvkCriOHJbkzaeokSFTlDfsO/wCY7i85g+CfLKiHlXI3Va8taUOrYg5mU9GK/ziWxPxezNSRAH8p7hdb1QTMLf8pXd8zpNF0GEhE+qRIOiyNsTDUHQXTjdZmbBQ6nnuxcEGagY5HE0j7W1KhMBrY5mHJI8FP2HafPoTXPNnfQJ2q8rAFhuGZHu2+4hswZpS/PBjPbM1HqfKEWmbKTQUr8bLPtSpmopSpto38ofw8k9Wkz7Dlub/gESOzKu2/Z75AdE+2vAWYrVkGx+9Xa/FcAJ6EvPIG7K5d6n9Pi8AgyUybDfxaDzZzGfjdn6nsjIIFqezRhgO8s2hv+p1nRld374hqoDwJSecPYPv1j/rxx+q2nTWuC/9WCZT4q5dqxiRQOa1o83D0b7jargEs84cmt61l5ZRR24tuoOd2YVfddm8/42Oz7FmNL0qzK+z/M7+HKSYl643bPydcXxwuVtTbzHYRcbPBwnNSAsufXvqFDUS82y6CLGtWJv5MOnRLxAp/yYm2f7KiHlbK3Uy9tqgNLYs5ohX/cSyK+T2YqyMBinYG7+99ixWIZ4YexDTPRcPanymwF/xe+hslPWguuFf6zAq09OlecEpEhFq5YZuGqYk6B78ERfM8bUcxcAyvN0oZafv9mBE0Y8NUNmgQwxxKxx7JaIwYKOc8jr6+VXJojECdqiqIN/pshqqzZPjcLaZkNJIX/BTlnutcOPtQWfFbnetEIkR1iISBPQhKOSR8E6NOvoWTjzwWcMmMF7VzEmdV+qULxcWLyCfbs1CwLx6FNfwuuDoUO9K8x94HZBBkNtALV7esY5Pgfr0RJwLJQDWgDBakKjsjhk6A53btRZ3n5EX9dlMFyqk2nHVdh2x/16mplhVNQlznW2xE6+9QP2ZnhmZMLGjzcPRvuNpuUCz0h6a2rZXllFDpgF6gx4PSZqzTG1iqnhXMpkPBuP0LhGMLkWBFvc1sFwHlIHk2Ch3TDCyn1T5bZ1mzSu/NbHuOVX0kJ5r+yYp6WCh3U/Xaoja0KuaIWvzHsCTmV2KujkTyt8RQQKXc3HAMBn4BUAfdDPs/w+HZTK8MYoJlkmQMBDGqTK4BA2Xl8FmW6LcsrLyqWWy+hPM2A50l+0tV5t2AXPkR5sXLke+5KoXRXoOnhAuopfcmojwpLrSlJ4z4P+KVP6ZgsZGD31QdRy9anXMweWIhmj7iHep1SFm4Aa38su9G9V1whoiqzDQyeH8zNpyYFXDPlqr9gwWpqs5Ixy74qcUv/wmTHxNvttNvt0v4tPtP3kC5/S+4fvb/8LMNRF0v2/9jrz8MVC91xx2wnKa3eTj6N3xtNyiW+UOGmW1rZTkFNDpgux+PTE/wrzMDndjyyhGwWFTEx2a1z9JLdISIUfsXCMcWIsGKepvZLiKquCOYv5Vxf4KDr70p6R9D7++Uem/0+Uaxso/kRMs/WVEPy+Rusl5b0oaaMpoYc0Qt/uN/a0XMr8RkHTHSMsQQRqXcIQR+/mHKuPc/vIE03xD+kwwkerQk9IyKas8Dw9+x3ipjDmqgDGHJ2//G1LwHmJlxAl08rt5vwwOvu5PUZzj7R5N5NxSwMWOKT8Oi0lzFHhjmHpu24vWjZi8V0pQvaTxu1nWyyhP1GB99E48sNrLsROMM8UPUtB5FV5fiou0ZyT77QkIhejJT6i77Dtc3kR1w6U0oy4C0+htoiSzf0vE7vP2dezH+v8WFNvp7R5TXALDHBtzHoqlX+w3IDLQXTdVxB7JfK9o8HP0brrYbHOv8oblta105ZdS6bcvMQLrfmQW+F/M1XPrOt/APcnF8+hmNPgX1mcZRySFovxiuLw4XK+ptZrtwQvO3IvIWOcmX6v6dWu+DnxIbCtb3kRzr/ZMV9bBS7mbqtVVtaFXMEa34j6Osg3kxvxfzdSTCPycGF98Azljg5w/fLHpqyRL1/j3lrLCRzJjqhDiOvwBTMyMV1EB5R9mAE9lL8D38H9HYAgZU53CqW75qmmE0m6fKvDNSH8LslCABmwDfA/MoqlSXZ+/Dxl1H0S+9M4WQZgYY2s8bvhLlS3x+/pzXGVpClGSmWtEQRAYqeQVz5GobDDQryK/XeeHtFCxK+hS7hQCYlUFv74hqAKqzj0X1OfbUgHvRNB13wIyoBW0elv4NU9sNipX+0My2tbKcEirdDpScYIOblho8h/uRjuNSefx9VqNP/u5dDwtNHxxspiFsXxwuFtTb1HbhKG9vCJboEOH+9PlVmxS6rOenlQMgA6fEhkQ0+kiO1f7JinpYKXcz9dqiNrQq5tD6EMviP4YlMb8S83UkgChuQUbFHnR1dQX5OYrWmh9Kf6MkAXNr9kmfWYmMePNUmVCgDeAimboXsujSgR8Mv3cNKu8WvGoMRl2jZ0k8iKnFoX/8IfISpF/5DWI0h7roOiepozyXhaVpAzgodayGl1wHLTOHBf/tyn06SXBkZ6gOIHC7mvDj+k4W1vnjSoyd+TjKHN49ML3MKbjM3Fau2KdhJHtmbCbRH9oDd0LBjQHXcbgGxPVRgy0z9XIdfRmo5BVSkBrAgfM76Z4+hO8uTseF9+QAWK/dtAPQwPtYLrmOYJf8Od29aMqMq15HaF6by4SvfwqGi+0GxUp/aGbbWu23NTbgt+9gZTrxOp5/+278+rFvol++gzHYYJlz5jz+ZnTp5sAHaNn+Dvr8fT7EANMUW4iEiOttQbtc+hQ978rO+VpcPypIDCP407dxh/OnkDZysJBT5xR55R57I7oREub6y8HzT+b7fWvlriEivbag7gzLYo6oxX8MS2J+BRboSFT9qZeL6OvcIWy+Fg6Tyq7C9s4+ph7RZCiUIUI0V++EPXXvPo22F9dJR+nbkJpXg0bNPZicS6d78K70Wp9+nGiqweYx+Sj7zlU4JhuFkaO6Azon1l5ttXh67xQ4F6XhhpNyMK+XCRqDcUm3SK8NwvcArZf3iTFp+NyVx5zYJydx/Gw/Ppd+40PczUh/8D4mSSvQDniCJTLUy1pSF85EipEEgMAIjBqjnPl/D/sPnzZgI/1wtaxFfvYf0P1/eY872DJTy0D/WhjNZ0MKUv04ZcG2moGfFCAjvtcbAOu2mzJ7qT8A7Tne4bm6RvfEUENLjzlmtblMuPo3HG03DEz1h2a3rQJTy8nRLnH1MwDmidjyo7iHL6Ub8Oq3oSRn6wG8c9Jzu2lA3H3vYePKDej5ZpLf5Ycq+w8aYEbii00i4npb0C7KwDkIQrnKX8MY55NI7T8iyZI9W+cUeWUbecvgxucDnxvQ/WCYaVOD6Z/M9w3Wyl1DRHpthV+0KuaIZvxnfcxvhY4Yr51piJ1cUVYJ6qRTE9Feh2VZy7C2zYgimcFQKEOkMOVWXb0T5tQ9D7rXPo2cWq72SZi7fB2qizKCb4Tvaccfj/nZzzFwAi1VTtTiYTgdt+GM0liNHNXNL7D3OdVPaq/1QF4xPwr9oiKYvx0pXx/N6tGHo0e1SYmrkTh1WggdwAW43qiXBveM1OXY4DO4FwccPcc+wpmAihKHUV9PRrr0DreNwagrpNcRE2jGjcmosw2dWtmpZhIC3b0WiCtx0623KeTXjaZV67HtROAFT+6+DmyvKsSsVZ8is6EIGcIyl0GWmVIGeoeacDTykoNUd99RtLu09VZ2GEqnLMMc/baX8Nr4HwrL+JUO3JOA8qe3qtN7dQJlVVnvxcLZUwIOElQzup6O8DyOtuzHCVWW2aw2lwhb/4aj7YaBqf7Q5LZVYmo5Gaqle34GwAOs7MLgppCVaYQi0FOcKzFwEp0em9UmSXZhXd1+nYN2+AxMC+sLa/HZvBI85vdaQ7X9qwLMgeNo2f5f6lnOiHxxuJhcb9PbRYsL+/74AQakd16kci3bgVG5hXAknlPIUi6Hv2BY2UaKMjAfe6BiI9r7AwrCIGba1GD6J7N9g9VyN1OvLfCLlsUc0Yz/NJge81ujIwHlbBnuHuyv2+K9e9BDK2rrDuCkkXqolquEgRllGGxYw6tO/gtj6l7IWi1/XBzQ2uai5OUarFh4Z8AN8SPGJuAu6bV4rPxLaJGNjgUnnXv/gKr8H6Ex7hEUz0/CSJVBSffnuk+hZUUVWk7LxqcJXns3YVX1H9AhGad4N9jPMP+pj5G5ciHS4pnzUD7XfjuSbrwC/e8cwsc3XqdRaNYBJKcjU354TweO9wTK5jGn17kZZc5d4tvUAjRUP+rntFlpL4fBzKCwBPKRdN3ZvpBwn8VHx/qkN947ifkeo7XPHQeuVac1VDMJQbN6Wpj8UmZiofLUxd4mOOcUoqqpTbHkhncY7WhpqkKO/WEs23EzyhuWwzFBDncGWWbKFQ3paZgWKDBn+JUX3yfS8D5G2rTdwQA+kZfWKZ2yAM9cPoPycw8yR89sQeXA5QTURZze04AtwgmLXoy2mfpzekftK2d05Y6Q63szGnqu1+yFNKvNRcLXvyFuu8zfdWwsxfSJ05Fd1eJ3+Vl4WOwPTWtbK8vJPqo6AFEaAMvwgdPK9Tj54OOYL5RJGejJ50rwpXCN+KMnMLoaE749Q3PQTgEcy+vRolqhxYPDN9FUlYdps7YgbskvsTRtrE/5BFT9myLAFFZnbEbnLbfgRsUfRuaLw8XcepvfLowbxiFJXq7IPt1euQ4vbO+QEgKiLu7i94Nm70ei8ylRD5U+XY59hGB4PfZ4YguOcr+uXAbud3+Ht7+bqTN7ZhQzbWow+0lz/b71cjdTr82uO8OqmCOq8Z9VMb9MiDrC/Wp1rrCydnrpJk9fo8UUcwiJLwdw7kNJyFo+PIf+L6XXOqgdqxIXDh7/RKHQATChDIMLM66jLWj0nPzHMHz6m9xJlOIe+wKsbv4rUvMqsXXbr5CbnqifxbnxG7jbrjD89loUzLpLXL492Y6sxTV4f9ovUb00XRwYK9f+C/fnjkBf+050fvefFRvVNcEro7f5l3jYniw8V7gbrPIM5j3zpNRRMhQOQzhZ7Yuj2HVyPL7jz3GMugvZZfLhCu9hx94u/1ngEzuw8onVaGef5Muvd9cuFgMxLZ6Eil5mkHXcr25FM3vluwQyQnxkejUr/inseaED9/xaG8grB1LKrF4IjEzGAs2pizz5U+fMwaxpk8W2nziZdRjZKHDWwTX353hl2y/Ujn5QZaZc0RAsc8j0wHMJOIPvEwRzpC/txehsh+8gSTVrcQ2+gi/ZE9hThCyuE7X9mVjj2ZeuHgAn3nw107k30Hg8HT9W1dVom4XQtqqOhh/Eci0+7diCF/7zGyjW7pvnmNHmAhHq35C1XaZT7Y1YsrqZheAsCK9bhVVvuIS2jxyL/aFpbWttOb/sP4cPpdewsUDNzaXLA9QdLIh6FifnPe0NTn0OM/kKBjr/HbvGPKw46DAOI6dkIFuxH5HT21yJgiw7Jgv15j/JsGctgnPHTVj+yprAA1qGKmD0BHDMX6z9NbaPfxSLVH9rgi8OC3PrbX67MEaMx7cX3Cu94TB9XPYw7JO9uli48SsoVAwgVMsihdjnEguGd+D4nGz1ITj9H6LDEyxeh9HXxol+91QGSjNM6mPMsqnBji1M8w0My+Vusj2bWXfeP1gVc0Q7/rMk5pcISUd4n7sJTwkrSsW+ZknDu/A3lx5qFSPnipEYc5tCSEqCLqUQnWd12TqpobTw+6XKUe3J8gUgojIMNv1wHfytFMQp6D6Md/wu6eEy24+Wlha07KpH6XSpk6g8ivSS59CweycaizOR7C8I1BKXiO87izDXr+hYQJlf4VVuzufn0Sf3+b1H0LqlFg0fTccircKy4DXnmQKNQ5GxI6/GqQkQvPTuWIcnyt7DpO9PCTAgvxJjM4rQWJPPns+zwE6srG/1Zt8GXGhrqkb+nGVoTszDmq3b0FCss/xasf/Hb2aQPe9gfTmeqNwH29w1aPCzNzkitDLd9Rrqy17G+ZxFvktgVAMpY6dK+sJPXXRgZbmDtbAerJ3WvIJtqx9FilaXBlVmytmCYHveNEffNxfAnrMJ5x/K9iNbhsqPdKOp4D6hM508fxM+S/+JZtXDFzjfJy/d2QXnrAzkb7sGjsfT1CsjVANQo0uPg9RLlcQ7grocB4r23IacHytsVYUJbS4Qqf4NVdvVnpbJ+p1DH+BT6V3EWOoPzWpbhqXlVNC7CQXf44PlZMxvPIv0Vc+iSPlc5Z7M3lrk3HUv8luYfvOZA+nXAnHjkOF8FuVz1YGwFpsQsP4KC1PidfVVNcBjvXFl1jRMvKcax2f+DKuF1RlKzPDFYWJyvT2Y1S4YjeQFS1CinClTYnNoZsQusUef9JwlgO5D2Nu0Ca9jFh7X6puyv8TvUWD/J+Q3xyPnX/0k88LGJJsa7NjCrHpwoiF3U/XaxLpbGXNEO/6zKubnWKQjV3R1dUUwL3kJfS2/hL3g99J7GX76cSMqMvwd9MFPQlwNR4HyOHZOEhw1tVjlU/mP0VKajYJmjwsLiYSSrdidm6zZaxpqGYYA/W2ompODOnWBQ4AZY/nDSBkdhxHjpuG+ZIMdlw/iTO8bTXVw1vHUAp8dKcDC2ff5PlOxX9c2twRl2Q9hZsDv5c89iM0bKlDZzPNWSZhbUoDsh+7zHXB7ntvLPlOKJxakG7oMmy+Je3P/Lmx01nkTAnzZtXMGEm81JpNLnRuxuCUJv+KG/AULqluP46OOVyRZcER5ZNtTYU8LMvMdFnxZ62rkOJuY7vI2/RfMvsfuPymh1BlbPhp2LkVa2Mt+ePu8g7f2bkV5JZ+hEuHt6pxxOybZvxWwDQZVZkoZ2Muxu86huHdZizTrl8MGSb1ctnlwfF/vonUukz14oWyVuDdf0KUszPieP1kofA7/XFk2Hprp5+47g+Xlp2TmzXKKyb1g9VLYIRM0ypc48H1Dcg6/zQVM1L+hZrvu0y0ocxR4ri6w5TVgZ3GaYvl5pFjtDyNsWw8WlZMvbdvRgIplYnsL5Zo3A9/z1y4h63c/XG0H8U7rlsh8kLDc9qdwCvUO4i9M9cXhYkK9rWwXnqR6ownrZRvX8afuvoNYW1SKWvbB1LxCLHHMRlqiH+sL2/eFQ2Q2NfixhYwJviGqcjfJngVMqLulMcdgxH9cJhbE/KHqiOrZP8f64h/4TSxEOKgNFz57+AYaKqrEYJBVaE1pDjINBCbmMRTKQBAEQcQerKPv/C3ys8Rlz/byBtQ5JlDfQRAEQRCDxCANagmCIAgihpEz4RismTeCIAiCIGSoFyYIgiCIkHBL15UkwVH2QxNO8yQIgiAIIhKoJyYIgiAIw4j7oFY9tR2J+cux1MwTSAmCIAiCCAvqiwmCIAjCCPygnO38xOX/BeSuU5/8SBAEQRDEoEF7agmCIAjCAG7XdpQ1XcKDgU5bJQiCIAhiUKBBLUEQBEEQBEEQBBGz0MIpgiAIgiAIgiAIImahQS1BEARBEARBEAQRs9CgliAIgiAIgiAIgohZaFBLEARBEARBEARBxCw0qCUIgiAIgiAIgiBiFhrUEgRBEARBEARBEDEK8P8Bh+/V/ejBijIAAAAASUVORK5CYII=;" parent="1" vertex="1">
                    <mxGeometry x="86" width="677.86" height="40" as="geometry"/>
                </mxCell>
                <mxCell id="4" value="&lt;h1&gt;Variables&lt;/h1&gt;&lt;div&gt;num_1&lt;/div&gt;&lt;div&gt;num_2&lt;/div&gt;&lt;div&gt;num_3&lt;/div&gt;" style="text;html=1;strokeColor=#3700CC;fillColor=#6a00ff;spacing=5;spacingTop=-20;whiteSpace=wrap;overflow=hidden;rounded=0;gradientDirection=north;fontColor=#ffffff;shadow=0;glass=0;sketch=1;" parent="1" vertex="1">
                    <mxGeometry y="60" width="130" height="120" as="geometry"/>
                </mxCell>
                <mxCell id="47" value="" style="edgeStyle=none;html=1;" parent="1" source="5" target="6" edge="1">
                    <mxGeometry relative="1" as="geometry"/>
                </mxCell>
                <mxCell id="5" value="inicio" style="rounded=1;whiteSpace=wrap;html=1;shadow=0;glass=0;sketch=1;strokeColor=default;fillColor=default;gradientColor=none;gradientDirection=north;" parent="1" vertex="1">
                    <mxGeometry x="364.93" y="40" width="120" height="60" as="geometry"/>
                </mxCell>
                <mxCell id="46" value="" style="edgeStyle=none;html=1;" parent="1" source="6" target="12" edge="1">
                    <mxGeometry relative="1" as="geometry"/>
                </mxCell>
                <mxCell id="6" value="&lt;div style=&quot;color: rgb(255 , 255 , 255) ; text-align: left&quot;&gt;num_1&lt;/div&gt;&lt;div style=&quot;color: rgb(255 , 255 , 255) ; text-align: left&quot;&gt;num_2&lt;/div&gt;&lt;div style=&quot;color: rgb(255 , 255 , 255) ; text-align: left&quot;&gt;num_3&lt;/div&gt;" style="shape=parallelogram;perimeter=parallelogramPerimeter;whiteSpace=wrap;html=1;fixedSize=1;rounded=0;shadow=0;glass=0;sketch=1;strokeColor=default;fillColor=default;gradientColor=none;gradientDirection=north;" parent="1" vertex="1">
                    <mxGeometry x="364.93" y="130" width="120" height="70" as="geometry"/>
                </mxCell>
                <mxCell id="9" value="&lt;h1&gt;sd&lt;/h1&gt;&lt;div&gt;Cual numero es mayor y cual es el menor&lt;/div&gt;&lt;div&gt;&lt;br&gt;&lt;/div&gt;" style="text;html=1;strokeColor=none;fillColor=none;spacing=5;spacingTop=-20;whiteSpace=wrap;overflow=hidden;rounded=0;shadow=0;glass=0;sketch=1;" parent="1" vertex="1">
                    <mxGeometry y="210" width="190" height="230" as="geometry"/>
                </mxCell>
                <mxCell id="10" value="si num_2 &amp;gt; num_3" style="html=1;whiteSpace=wrap;aspect=fixed;shape=isoRectangle;rounded=0;shadow=0;glass=0;sketch=1;strokeColor=default;fillColor=default;gradientColor=none;gradientDirection=north;" parent="1" vertex="1">
                    <mxGeometry x="230" y="330" width="150" height="90" as="geometry"/>
                </mxCell>
                <mxCell id="34" value="" style="edgeStyle=none;html=1;" parent="1" source="11" target="28" edge="1">
                    <mxGeometry relative="1" as="geometry"/>
                </mxCell>
                <mxCell id="45" value="" style="edgeStyle=none;html=1;" parent="1" source="11" target="10" edge="1">
                    <mxGeometry relative="1" as="geometry"/>
                </mxCell>
                <mxCell id="11" value="si num_1 &amp;gt; num_3" style="html=1;whiteSpace=wrap;aspect=fixed;shape=isoRectangle;rounded=0;shadow=0;glass=0;sketch=1;strokeColor=default;fillColor=default;gradientColor=none;gradientDirection=north;" parent="1" vertex="1">
                    <mxGeometry x="470" y="330" width="150" height="90" as="geometry"/>
                </mxCell>
                <mxCell id="14" value="" style="edgeStyle=none;html=1;entryX=0.487;entryY=-0.011;entryDx=0;entryDy=0;entryPerimeter=0;exitX=-0.026;exitY=0.533;exitDx=0;exitDy=0;exitPerimeter=0;" parent="1" source="12" target="10" edge="1">
                    <mxGeometry relative="1" as="geometry">
                        <mxPoint x="290" y="290" as="targetPoint"/>
                        <Array as="points">
                            <mxPoint x="303" y="278"/>
                        </Array>
                    </mxGeometry>
                </mxCell>
                <mxCell id="18" style="edgeStyle=none;html=1;entryX=0.5;entryY=0.011;entryDx=0;entryDy=0;entryPerimeter=0;exitX=1.02;exitY=0.533;exitDx=0;exitDy=0;exitPerimeter=0;" parent="1" source="12" target="11" edge="1">
                    <mxGeometry relative="1" as="geometry">
                        <Array as="points">
                            <mxPoint x="545" y="278"/>
                        </Array>
                    </mxGeometry>
                </mxCell>
                <mxCell id="12" value="si num_1 &amp;gt; num_2" style="html=1;whiteSpace=wrap;aspect=fixed;shape=isoRectangle;rounded=0;shadow=0;glass=0;sketch=1;strokeColor=default;fillColor=default;gradientColor=none;gradientDirection=north;" parent="1" vertex="1">
                    <mxGeometry x="349.93" y="230" width="150" height="90" as="geometry"/>
                </mxCell>
                <UserObject label="si" placeholders="1" name="Variable" id="19">
                    <mxCell style="text;html=1;strokeColor=none;fillColor=none;align=center;verticalAlign=middle;whiteSpace=wrap;overflow=hidden;rounded=0;shadow=0;glass=0;sketch=1;" parent="1" vertex="1">
                        <mxGeometry x="505" y="250" width="25" height="20" as="geometry"/>
                    </mxCell>
                </UserObject>
                <UserObject label="no" placeholders="1" name="Variable" id="22">
                    <mxCell style="text;html=1;strokeColor=none;fillColor=none;align=center;verticalAlign=middle;whiteSpace=wrap;overflow=hidden;rounded=0;shadow=0;glass=0;sketch=1;" parent="1" vertex="1">
                        <mxGeometry x="310" y="250" width="25" height="20" as="geometry"/>
                    </mxCell>
                </UserObject>
                <UserObject label="no" placeholders="1" name="Variable" id="26">
                    <mxCell style="text;html=1;strokeColor=none;fillColor=none;align=center;verticalAlign=middle;whiteSpace=wrap;overflow=hidden;rounded=0;shadow=0;glass=0;sketch=1;" parent="1" vertex="1">
                        <mxGeometry x="510" y="430" width="25" height="20" as="geometry"/>
                    </mxCell>
                </UserObject>
                <mxCell id="28" value="print num_1" style="shape=parallelogram;perimeter=parallelogramPerimeter;whiteSpace=wrap;html=1;fixedSize=1;rounded=0;shadow=0;glass=0;sketch=1;strokeColor=default;fillColor=default;gradientColor=none;gradientDirection=north;" parent="1" vertex="1">
                    <mxGeometry x="485" y="460" width="120" height="60" as="geometry"/>
                </mxCell>
                <mxCell id="39" value="" style="edgeStyle=none;html=1;" parent="1" target="41" edge="1">
                    <mxGeometry relative="1" as="geometry">
                        <mxPoint x="282.608695652174" y="410" as="sourcePoint"/>
                    </mxGeometry>
                </mxCell>
                <mxCell id="40" value="" style="edgeStyle=none;html=1;" parent="1" target="42" edge="1">
                    <mxGeometry relative="1" as="geometry">
                        <mxPoint x="327.608695652174" y="410" as="sourcePoint"/>
                    </mxGeometry>
                </mxCell>
                <mxCell id="41" value="print num_2" style="shape=parallelogram;perimeter=parallelogramPerimeter;whiteSpace=wrap;html=1;fixedSize=1;rounded=0;shadow=0;glass=0;sketch=1;strokeColor=default;fillColor=default;gradientColor=none;gradientDirection=north;" parent="1" vertex="1">
                    <mxGeometry x="180" y="450" width="120" height="60" as="geometry"/>
                </mxCell>
                <mxCell id="42" value="print num_3" style="shape=parallelogram;perimeter=parallelogramPerimeter;whiteSpace=wrap;html=1;fixedSize=1;rounded=0;shadow=0;glass=0;sketch=1;strokeColor=default;fillColor=default;gradientColor=none;gradientDirection=north;" parent="1" vertex="1">
                    <mxGeometry x="295" y="450" width="120" height="60" as="geometry"/>
                </mxCell>
                <UserObject label="si" placeholders="1" name="Variable" id="43">
                    <mxCell style="text;html=1;strokeColor=none;fillColor=none;align=center;verticalAlign=middle;whiteSpace=wrap;overflow=hidden;rounded=0;shadow=0;glass=0;sketch=1;" parent="1" vertex="1">
                        <mxGeometry x="245" y="410" width="25" height="20" as="geometry"/>
                    </mxCell>
                </UserObject>
                <UserObject label="no" placeholders="1" name="Variable" id="44">
                    <mxCell style="text;html=1;strokeColor=none;fillColor=none;align=center;verticalAlign=middle;whiteSpace=wrap;overflow=hidden;rounded=0;shadow=0;glass=0;sketch=1;" parent="1" vertex="1">
                        <mxGeometry x="338.86" y="410" width="25" height="20" as="geometry"/>
                    </mxCell>
                </UserObject>
                <UserObject label="si" placeholders="1" name="Variable" id="48">
                    <mxCell style="text;html=1;strokeColor=none;fillColor=none;align=center;verticalAlign=middle;whiteSpace=wrap;overflow=hidden;rounded=0;shadow=0;glass=0;sketch=1;" parent="1" vertex="1">
                        <mxGeometry x="415" y="350" width="25" height="20" as="geometry"/>
                    </mxCell>
                </UserObject>
            </root>
        </mxGraphModel>
    </diagram>
    <diagram id="G4cZRR1bQmBaSA-DbGEM" name="Page-2">
        <mxGraphModel dx="748" dy="744" grid="1" gridSize="10" guides="1" tooltips="1" connect="1" arrows="1" fold="1" page="1" pageScale="1" pageWidth="850" pageHeight="1100" math="0" shadow="0">
            <root>
                <mxCell id="IhLaBUIPt4K6v4suk_7A-0"/>
                <mxCell id="IhLaBUIPt4K6v4suk_7A-1" parent="IhLaBUIPt4K6v4suk_7A-0"/>
                <mxCell id="1WltymizTbA9ynMsE1lI-1" value="&lt;h1 style=&quot;font-size: 15px&quot;&gt;&lt;font style=&quot;font-size: 15px&quot;&gt;Datos&lt;/font&gt;&lt;/h1&gt;&lt;div style=&quot;font-size: 15px&quot;&gt;&lt;font style=&quot;font-size: 15px&quot;&gt;precio_billete = 2.5 pesetas&lt;br&gt;precio_billete = precio_billete * 0.3&lt;/font&gt;&lt;/div&gt;&lt;div style=&quot;font-size: 15px&quot;&gt;&lt;font style=&quot;font-size: 15px&quot;&gt;distancia &amp;gt; 800&lt;/font&gt;&lt;/div&gt;&lt;div style=&quot;font-size: 15px&quot;&gt;&lt;font style=&quot;font-size: 15px&quot;&gt;dias &amp;gt; 7&lt;/font&gt;&lt;/div&gt;&lt;div style=&quot;font-size: 15px&quot;&gt;&lt;font style=&quot;font-size: 15px&quot;&gt;&lt;br&gt;&lt;/font&gt;&lt;/div&gt;&lt;div style=&quot;font-size: 15px&quot;&gt;&lt;font style=&quot;font-size: 15px&quot;&gt;Salida:&lt;/font&gt;&lt;/div&gt;&lt;div style=&quot;font-size: 15px&quot;&gt;&lt;font style=&quot;font-size: 15px&quot;&gt;&lt;span style=&quot;white-space: pre&quot;&gt;&#9;&lt;/span&gt;precio_billete&lt;/font&gt;&lt;br&gt;&lt;/div&gt;" style="text;html=1;strokeColor=#005700;fillColor=#008a00;spacing=5;spacingTop=-20;whiteSpace=wrap;overflow=hidden;rounded=0;sketch=1;fontColor=#ffffff;" parent="IhLaBUIPt4K6v4suk_7A-1" vertex="1">
                    <mxGeometry y="90" width="200" height="180" as="geometry"/>
                </mxCell>
                <mxCell id="1WltymizTbA9ynMsE1lI-2" value="" style="shape=image;verticalLabelPosition=bottom;labelBackgroundColor=#ffffff;verticalAlign=top;aspect=fixed;imageAspect=0;image=data:image/png,iVBORw0KGgoAAAANSUhEUgAAAoEAAABICAYAAACJKy/tAAAAAXNSR0IArs4c6QAAAARnQU1BAACxjwv8YQUAAAAJcEhZcwAADsMAAA7DAcdvqGQAAFMHSURBVHhe7Z0LXBRXlv9/gooiC74a1PDoJQkIEjLIYBi2MWYkiBrFR2cyrtOiSwxR15BhGBmXcV2nwydRiRNDHGMIUcL4d5wlGCYmYEcnRllCNARDEKRjSPMICu0DOy2Kj/Z/763qph9VDRgfGOv7+fDRqq66j3PPOffUvbfqDqivr78BCQkJCQkJCQmJ+woX/l8JCQkJCQkJCYn7CCkIlJCQkJCQkJC4D5GCQAkJCQkJCQmJ+xApCJSQkJCQkJCQuA+RgsCfONdr8hAXHIzg2E2oMJr4s/c4eg0y7nadzGUIjkVyYQOcl6ITNXkqcm0wYrMrYHQ4vkPcLrn1h/a4Ga7XIC+OtuE8ZFec50/2H0z6auzJTiblm4WMQi3Rmp8WP0nf9KM4BU1G3E3q4y32KfeqTUv0md4FgZ3VyFMt6J1i9uXaXmLSFSKZKqTdX2xGHkordD8553grcQ1bgvfzU+CXGIMwj59IzC+Lw5q7XSdZPNZX5mOp90RM//kDPRiSO8KSX0f+0ilIVATDw+H4DnG75NYf2uNmcA1D8vukDf0UUIR58Sf7CaZW7H9tIyrkqXgvKxDlunM9PGjce/wkfdOPYizi17x0k/p4i33KvWrTEn2m59YlzkiTlYkNR7r4E07oy7V9wEWuRO6+LCjgDUVWCerq61FftQ/rg7TISlqJLE1rrxykqU2DP+2owXX++PbBP9FlaKDnz9w9LkN3vB6R4QF3LtgQ5FbK5AJqyqrucp1MMNaUozgoFj/3d+PPWcGepOOQoTnFHV//HsdLxyD8QU/hY2dQu/rTTtT8aMW9WbldJ9VZSx681kKjFypEf2iPm+O67jhKI8PwoLmju2Wy/jEQ3TryN6ibpkI1Iwxhys04nB59z8nWAXub6De+6SZwqMutgPcp1vrYF/riU3rEzqZ7W987YT+3Rfb3Lz1omhENRVugLtTyx87oy7V9xYTO003QwmrUxV2OmOQ/YOPSQShU/w1Hehqy7tSiaNNuuI9/AK78qdsHeaJbvx/16+Mh48/cNUyncaLcA1FBI/kTd4tbKBPm7Ebe5TpRJ3kUQdMnwl/IiuhIYf1+rI8fyw5NzSdQHvAIgkZx2md/LA5nVxvcH4T8xyruTcvNlVRnHerr1yFeJlCIftEeN0MXmk/UIiDqIYxix7dQ1j8Ck74Cb20pw2RVPELdbyIY6K/Y2UT/8U03gX1dbgk0KD6OIIs+9o3e+5ReYG/TvarvHbKf2yL7+xcnHoYEXjVF2HYuDIsV3vw5Mfpy7c1AO9wytCvsR1088WD4I0B7FY7rLnOnOnWoKMyGik0Zx0KVdwz6mh1QRcxC5vtlyE16AXk1dALZCF1FIbJVsdz0smoHagzV/Bohuq6iHG06Dfk9DgtUC/ALlt5aaNpaUbGJrtNJIekYiMMuxyaaBls7cZUfMaHX0nUdLZZ1GmwErLMBGrbGh7uXg8hOV4a8jFnk/CxkZP8JKppWh3BZRNefOdS7mk2Tm5q+RAl+ITxaZVkTlYq/V5RjBysDuXdTOfRXzb8J5S8gu05aKlqXChSyOpLzsZkobOiwkwm/TMCkR40mDxmx9DzJM1sDHUtDCGsZpeCtPYeJs7PSBZG622CRfSoKddxINbfMgLTpqWN8XePI02UrSY7WldTNUi8BjPUoKzZitO6vSGL5JiNb00DyNa/rIecs62m60PTFZ4AlYLQ/pgjIVE/KpZqO6ZmFaM5Nwpw8OoptJ2MbXbLnFsiNPXXT363XGvWcbnleBmLpPRmv4BXB5SHdcorN1KCNifk8KrIXOOi4Ze0YKaP5N+4cqXvFl+Ltah61FKun6Xt8UUKagT5YsmUsQrIWsE3RB07HNjxW8RZfdlqeDug0m0g5RGRNzlB/EaJYgm1HjqNw5XoUsTrdjK+ittbE50dlYyR+UMPXhaaxCRpyzoKNjKzXIJK8y3dwdhr7O2S/ksz0oMPSJtb5zIOKlIGlT+XUdpJrm+SXsDHN3iaI+J35JkFs5RCbsQcNzD6J3xWqm8W/ObFrp37IztaYP9MK2DflJtveYivk/FvF+Lx8ePdAR598pIBP6ZUdmhGz6XMO9TXpv+T7Clou8sf6tj7Yj6Vvc+Zvhdr6e2HZ96mewvrssIbSoju29sX8j5g/EdQX3mPqa6Dhy9jdV3Sv47S1lzwUviV0vhA6kzM9s7f53s3IWroge0xtJNL+3zFIS34MPa1O6Mu1NwXrcPVQiI26mOnUonBdGrbowqGuOoZ9WRNxZFcl2kIWQJ2VAMzJQVl9AZLDTGgofBmqLU0IV5egjk41HzmAz5seQrKmBFmKiZjp34KSLy5hxGAZIle8gY/zU+CtGAPD3iK0PJWMVX7fovbzD/BGvh5z1JmY034BhksubMSEpedN13WMQ1jy26QcT0EROQiV63fBMC8DOXP00LZeJAUmStNQjHWq7Tg/dTOq6jYjqu5j6Og6jOHhgmUJ8R3h2GiC9T6KhuvUMRxGY8x4+AnJzTUMS96mZT2HyupLmLK2EIdynoRu2258+v3DIvkPhE5Idg1EpWveRYpqDy7ErEFVfQXyE89A137DTiZEQ0xtqHjtD5hfcAFTCypRX7cbqvNvQv2RjkjEHl5Gz34A14XvoK4uAyNL/l93nUTrzt3NQYKLXYfgmTAXc/gzLF06uqwgT84+P+Pr+igiPY5ife5FzKNteuQ7tF4U2lCHn7Zp94Ys/DfYVl9D5BaAYvX7qDb6IH79h6QcCfA2r6dhwUYHYsaP4Z273TFxQYL62BaEJepUKPBr5JTVYn9yKLqYvuRCF55J9IWWuRa7Pm8SWOJwK+RGoE/dLJ+J/Fqj3qW79fxUFJB0C6JOYbsuSmCNEx0Z5uTUfqgG3zHn74EHFZMxhrvAgmtYMvZX/S9WTQLKjp7EWXZuHl5aehAbkj4Ub1c6IuKkniwIaQzFeD8ShLiHi8hawDYFp+qE27DS4zfQ0P8rguBR+TZyDQlQ5/wSR7SnQT2ALXRdVwFq31sFP0UW9pE8lfKrffRVf8H/MVuLhH/LYXxh8sBgbxlwIg9p83dzdaH6qjJCrS4lnQrJlnbgKWnYcyGayKgWlflPoJKtQeTrtPUcs9O6gl+gbvt5pgfDSZuwetnko8CKrR9wuj/TBy0lx2AaMRTeIXFYtsnOJljQ4sQ3OWAgHebvoNpjRAyRQ31lPhIrv0O7iQSAFduE6zYgzLldO/VDRI8E/ZnM0b5vtu2Zbq5BseszKKrbD/XICmww62OffCTB3qf02g4pzmy62065+t7A2apivFz+BPIra1H1XiaUdOSyL/Zj6dvE/K1YW9uXhdS0T/UU12eH5Qh0vbBQ/+d1GkWC/kRMX66SALAcr6W9iAJWxjrUHXoG59Wb8ZHOlY8P7O1lAhKeEzrvgY4iJ3pmY4sB8B09iK+Mc4TNjwi2qKAZ0//zCfgM4M+J0Zdrbwpzhyu0AL8Lbc0N5N+R8PK4iJpdryKzdTYylsdBPuQ8tFXNmLQgCoGunTita4eCDbPTxirE2swzWJzxLOLlbtBra6GdNBWPBQ7hOoayFhxv8cXMeYlIztuF9GgXNhKJK6dhemwRlCOM0DY3Y+/Bq/jl8qfgfboW5eZOh3duWrOSMuM04uGWBlxKSoWSBFzV5aRv9RxCZFeDXWsLMHCNGmnxgXB3GQHfEF8Eyb1Jd0BuFSzLCFpxK4jBOK33ZSRMEJsC58paJp8K1W+egNzdDaPHPQA3DIfnsIEC+e/Eco9/CsvO5yR2rf8MERvTsCRGTso/AtHp2/jyWsuEmOKRnfj9ngDkZK8kaZATLsMxLnAYGi90wiHkYjIqhc9LaVgULoOLy1B4jpbzdXJWd/5+BilL8iKEGbUotxiH7XQuq+sVL7TUDUJS5myuTb294DlUSKn5e7MyuXbDIF5uPKzN27udS2c7dI0TMEFO2tzh2Jk+DrYLaKgstqB1cSqWk3yH6E+iShuKBY/5O7bvLZEbB5ONlnesvUh388DnkZ0Wz+mTbwC8g/wxRnBa0w1+48Phxx6guJY3GYbi50Iv2rj7YcKjJJipbEYbDVRNl2Bw+R+8V7XaSbs6qyeRO5FtY8IEfuqKO7aVtbht2uKsDQcQ3f8MVx4+i7pLs5GpHIvT1V/DW+aJofzdttAp6mqQ3px0wDfjq9w5m25vQItvHOYlPIe8kjjosvbDP4evi1lfGy/AeIPK6C0cjEhH+hIFaTNXeESnYX/6JLjQvDe7YQ1vpy6jfRHi7Qf5GCoB3ndY53M4DdHup4juf4n24+fhOzMRCclvcOsZ7W0CPfkma6gcirD+4CPYmL4QMdRneEQjfT/JD1XI//0+kbqRO0Xt+oZzP0TbX8yf2dTlZtueyv11FPssQ/qiiZC5DMQwz+HwZvpI+ry++EiKjU/pox06tWmCTX1dMerRf4PS7Sxa2i/BPWwRspSBxF77Zj/O2kW0rS39qbksfakn306i+uyIo31tQ0JTvrA/6RLTF+BIfjb2+K/iy+hC8h2HQLdzuGCkT6K0PmL2Yn3+dexLOI1XRfVMwBbZA0rPCFxFFLB6LzbnbkCSIgzBIdORWdZOzh9HblKy3TBrX669WcSmggnGapTuOAJv5UzEjvyW/F+PpSumw6dhP/JWp0B9TYV1C8LgzkYSvfkg8gKqS/8B3dIleNqnCZq8P0Kp7kLqOiXC3K9ywvSeixXPRRPD5PMxnSfKaoB8ynw8RaIY47c1KMcUrMqYR+4himi9NqyzHgeKu50dp0it+CFsOhID3bmAljwvKcL+hRR/P3b5P48X4sZxDWFTTt7J2pfFHmOt83qXBos8FRF4g1q6IpHUg2bAdUDNzJCvCeQvJrt5kH/7T+wY/CTmTfJxVCobmfCddOpvEOfDP6mwtUGnEODlDtuQi+oXldF8LOTTNen+D7vLI7g6Oas7l4AV5nznYBJpmM6aYmzJtZO1Dgh76kkEsjYlQb85kLfHpp0oV3Gm9Xt0MedD0q49hGJz0ETrQNq8NMGclv2xM338wUq3OFns0M3Aiqd90KDJw2plDq6l/g4LwuwXgt9KuRlQe+Dj7gC+p3R3PYA1L5AHQiYY64CMHovRAcPFa+T+KuxtnYhpxME5wi/96CKd+yXy8Ld/L1rjZ3bLSKhdndaTlq0eCbyd2pbVLD8x27THSRsOoUHREeh+GI+nEoN4X0RUy5KvHbxNch3wzfgqrvPwXroUz0XTNuL0rTgoCUvNdTHbeYAXPC5SGbkicV6knY+heR+G/5pneTs1p8P7YYd8ODh/JyMyX4homXkkgnTANjZB6Mk32UDLsg+DE2dgkiVNSg91G+DMrs16I+SHhuAitTVBf2Zfl5tse2Yr3lAtjOLkbmrEp7u1N+EjKZwcLD6lT3Zo1nURmxZoOxefJ/DiS2NRnLQJmrar7JxtHuY0e+jbRNpFuK0pdmXpUz170GcHBPpfUX8SCpOYvrB6+yF16eN8GUnOdO1mMx24chWxF3KNw/me9MzRFntLX6+/8/ABmMNUMB0ufysXuVAiNTkGo5uOo7SdBp9KpJV2wG9uDkrSJ+DyxatcY7uFc8PsbMHrcbTnJiEqrRQGv/koKHkBoZcvwcQc23EoWIfSnRlrEO1kqJ4K4TsPorCkMZ6hna+NcnPKv8MyHH0dZ7Vfo0xhdlL8vRYnVIXIxx/hlYMYwu7tyLVxso5lsYe93eis3gE+gO4k9AJzCFy9uo3b1PYpcjc3QPlMDPwhkL+o7M6h4XgV3Gymdq5Cr2slz/t2MmFpDLSaCr1KOvS/YjOR7zOxfnYKSeVlJSM66rw13zLKKl53x8lRm3bqrMXeggPQWR4szkF7tIHUlXe61s6au9sKAefRWUfSq0Pi0qmQu/DGypfR7JgC/E3Q1erJ3XbHzvSRlcMsK7povArt7duQFPVfKDX4YW7Bu0gPBS46tO2tlBvn+Lo7J7F0yaVULpHRiOCdrG2gLYyrjx8iifwvGM+hprQdj/1KKBC1ov0sWqo/QEFrNH5lb3927eq0nuy+IUTPm1GrJx2Zjazt6mlvm/Y4a8OzJ3G0bCLfCfC6wx4COZuzx8Ymb9ZX0fyUEbzucnpjbZvWdv4A9ZtuvG/kMemb0NRWR+Thi8cj+E6lswa7t3xk6WAd86HwHafi36GcZD1jYW8TvByc+CYbHHwGwXQWuia907r5uzixa6d+aDSaRP2ZXV1uqu3/xc5WjGgoyiN534yPpFj7lDYY+mSHzn2FY9tRBkEWvQgZi7+HuqCSlJ7QJ/vpS7sQWFvTXKzLQm7rSz1ZHuL67ICAfYn7E6ODHpr1xUDvcbOyL1Mr9ucS+dKBK3+I2IuAHTnRs2uCtth7BKrvwqYDDtPPsNA/th6IvuwxAUvz85Ae7YE2zZ8QGzwLmZrTcO/1tb37jIstvPKXTehuWLpY9sBeEoU/i6Q9Y5CVvxrKQA8M8PBCADGwlPxC5KcroRijxZtp21B7sZM1EBIegnu9Fvob7vAK8MOklO0oy0+HUjEa2jf/G6/W/kAUox06rVVeDK5BtInxiLEorAyLE0KJwM0BwST4GhuJM6PKT4O8ULjXniDHBnxb3cI7JJIUa0hgptyEJr0BBn0HzhioQ9ejekcO/nzwW3g/DLR+oUOnYFkcEa/3eeYYgqaNQsc3VzDMIRFiNHT4nh86Z+sW0jegae5qvEgDVqH8B4jJrhMeXiPRfPAgjtIOlbbRnp348LQrhjCHYCUTJv+L0J5oIQ6VGEr137FJfRSTLU9o9lzjZEScU+FfiAMgDihohAENOqOTuttrmlXg5teBir9/DZcg4mxDPGD4ohZ6QyOqK6MsDpYZOwlN5GgT6KBofer5gI/IkC58Xvc/ODhlNZbTqSKzQwsfiNoaEuSxY29MG96Bb0xucLE/FpXpD3w5IhDi3kQCFROTMSatRH7Zm0hXxmCMdjvSXq0WWFtGuYVyQwzC3b9Djf4KOSeWrgGXDBfQfsZAglLarrvx+p/3QedN/EHrcScL2ikd0Ja+jy98o5y8DeuKkeP84YdCbP7QE6pF4SRYdN6uZ9zF6nmNvy8SwzuIXxrmaifrHmyTL5EF0Ta8wGYNKpnDp50AF5BhJvX+Z0np7eEeGi0dsBPdEPZVvE3bzJq4Mr3p0n6DRtIGdFH/u5tycGjySjZK40p1obkcmqNt5G7SbjV7sf3DVgwlXbu+nRuhZS8CvP4WDuo88TAJmr8gbe2YD4VfdmPfsdrbBLMhZ77JDiaHUzioOcbskX1Ee7sGp4cOc1o3F+KTRe3aqR8aKu7P7OvyY9qe2Qpdp/YOiuiLjUFEbxtIeViaffCRNj5lMLr6bIfivsK27XSozltr8yJae10LzpAk+2Q/PbaLUFsTGdqUpQ0X+1LPSwYn+uzwWoigfYn7TRIzieiLO72nqwEnGkkeVBbvbob6UBQ/eiliL0J25ETPhG2x99hk3b+gbw9Ox+SVO9FOVCRzWjj3NkyIAvN3nIDX1DXYt0/NAkCKizwBmVljsCdpMkKCH0dKoQEK9Too5ZfRqu2AXH8UhwxeGDVQjhmZKzBuzxIoQkh6KUUwKFYjRyknDwd8h2ItTPZE0L3+g+s8nsTUUDoFx4/OlP0T5UaSNuiopR746jOccPeFrJMqrQcigkZxgj7XCm2zHsebANmocYiYOw1XMqcjJKkAp6c8i99OCYDvN624FDAWJqGyCCBe7xvEEI3o3KfFoJhggdEVLjhrL8vENCKHkHnF8FK9hk0vxkBmfmq1z99FTHahCJyxAlnj9nHLApLy8c3DM7GIDk2zkVwrmVD5r3kesuJkRASHQbHxFKK3vgN1vHk6xxovhCfwMkrZC0/lr6CQAVrtRXh4uzupu73MruJMSyPatQeRm3cY7jN/Cd/zZ4lO1ELrPg5Da0ldA0IRxIbdr5NmakJzewOaMAKjHArlgQcTZgBbZhN9DEGE6gPilTZhWzINSoi6nGlBXbsBXx1ogHsgaXfmfJqxr2YoYqjO2B+LyjQAHbQc8jaUH+og+uIBubWM6dtfhhioc+aRYJQrWTe3WG74CgdODEagTOYkXU+MipiGlCubiT49j/zTj2H5b+Pg5nsKTZfGwF8suBs5DkEkgGsd8W/4VS+mMobOeQX5mXH8CIOzdvWFT6BYPQdzAWvnEdQMCieB5w2uzS2ydmabDzjakmgbjkItHaGJeIifar1AfNEptB8/TRzAcIG60ofG090j0KLpivgqc3Bl06m4Eb1JxRrZXkyPCEGIYgvORGehSB3PZGirC6TdvvHH7EXRkMkexdwUI/G7cUjKP4Mpy5/DFJLVN00mBPhfF8iHwAcj9g+uDjZB/KaNb2JvYtq9NWuNjRxiSXm+w8OzlYiWUZsQqxvvw8Ts2qkfojIT9mdE4WzrclNtPxKe4XFYzGwlFUWeM6BSPEAMqREGj5Fwp2n22kcSbHwKqVuf7NC5r7BpO/k1aMv/iQ3zo4j/icL8g8HIWZNA/A8v217ZD9+3OWsXwbYeZKdHPpD1pZ6jnOkzF0N0I9z/iftNT1F9GUjuWbNmFIqnR5LYZR42nonB1qLViLcMKAmMXAqd70HPREc0e8GA+vp6wXWmEj9xjBXInr4L8oINAp2/hMQdwngEee9cw+z/pA8f/Ln7FWqTqSeQkLOIX6N7n8BGSF7DFo9kbGUvGUhISNwpJHu7LxEZ6ZOQuAOY2jTIjMuGplqDvN0/YOqzTl58+qnDvq/2OxQ2NKHirRK4LJ3+0/pAdI90omb7OuzEfLw0TwoAJSTuNJLN3XfQafZ4RCZt46aCV/eHre0k7isuGXC6+VMc+HI0Zi+Zyj6bcN8yxANeg48gc/o6lIUl4fmbeLvv3oZ+G/ENrF9MP5PCn5KQkLhjSNPBEhISEhISEhL3IdKzl4SEhISEhITEfYgUBFrv9cr25uNP31auW/bTFdy38CdJ9z6J902dzfvuWu9zeTPcqnR6zf2onxISlFvsp+647UpI9A3XlStX/g////uUf8GDT85CVNeXOBP1G6gmjBD4IvutxgXDHvwZyfMk3BW/xhRf4Q2kfloMgvfEJ25NnelblFOXodhlPH4WPhbDbn+D3RzD/hW/iLqGEvcYvDDFD4P5033GIZ0u6Ap/h8dePg7foIcR7D3sFuvs/aifEhKUW+inKLfKB0hI3CakkUCK2Pd6GPxIYcYtfoGC5TkG4Q/S7w3eS/wIebCPZf/YOl9FW3kVBm98Gy/3+8Xk9LttVYgMD7ipL7l3Y5eOsQpFVVNQsi0Nc8Nkt8eI76R+mlqh+dNO1AhsWHJrMI9sroVGf9sy6efcJj92K2CjZXHI0JziT4hD3yz/044a0qK3kVvip8zY2W5v63rbbYLQB7n3S+718vcTpBdD6OdSKl7D9Fx/FOQqBT68e3u4XpOHaX/2wtt3MM+7jUlXiKVqYM39Umf6EdxpufB6+0d+i/FWpdMH7px+0h0TXsZzull4n26czp+VkHCA7mixbj10c7ORTnfnuU3cUj91U7Yr2YTEnaN/d8Xm9RTW287RqcDYVBTqutgl1rDtYDJmsfUc7M/y1Mtv78V+m4WM7D9BZVmjwe2cgdEn8bekWPJ7LFTZGug6r5LsuXVRwcHzkF1xnqVEDVRXUYhsFb2W/KbagRpDNfLi6HX0qaSV5KXhfqe/WbavIfeV70BGLL3nDez5vBoBlq98k7xqNHz56O+boBHaysZMZwM02cnkWlLWt3YhLzkOyYUnYTTna1nbSKcNU+3kUIFCdi8tb4rNFkDd0G14dnJlZdfRerWIyMMesTzo9nufAYJfNu9eh8PKaqmf+V7qFDMRa52vWQ9OfmEl+yboK96AisqF7j5A95feRNOxLq9A+Y4R3WBp0HVA5WhjcqQybcA1fQ00eRkkb/p7MrI1DcK7GjCs9SwFb+05jPIAq28xdupQUZhNykfTcrJDgmg617vlRHcMMdsASbecL2Nsxit4RbWAqy/bsslcdvrnbCTMmX72Vm8oAvbR2SWgT+TpnX0jbzqmZxaiOTcJc/LoCI913a1staOXNmaVd2zGHjToSnkfYr3GSyQP0TVbQnXitikT9jfWCNnS993lF7JVtoMGvTYVf68o5/Mg+rKpvHsbQwFdMpDAPY4dU31vgk6zifyego0bXyTnzOd5O6BbW2ny+HKR+5nPM7Hg3zENYX/bJzkK6mJL93ps6/sc6naM+McdUEWQfuD9MuQmvUD0j1pOL/Syj32IoJ8Ssy9BrGVibbvnHOoqqD93wiY6vxeVe6/qKdiWV7vzv2U6XY4Ks7+j5Ww7yfULyS9hY5pj+U2Cvtqqb7FJ406t/+//9O8gUBaP9Ww/4g4cqm7iOkz3f4Vi7lj2sy3XcbaqGC+XP4H8ylpUvZcJZdRDGEUNqKEY61TbcX7qZlTVbUZU3cfdG2KzaS895LKJ+PW2T1F3aA38i99EYbWRZL8OdfuyoPA2b/jOPaGptjQhXF3C/XbkAD5vegjJGlrORxHpcRTrcy9injoTc458h9aLdKCVu+/Z4kFYWFSDOvUYlGw4x2+STTqJim1Im7+bK199DQ6pjFCrS4WVlDqJlCSo9U+hpGo/suXfYAfdWznoe+z+hxsSFv6Sv5DC70FoI4dc6MIziRxoeWux6/MmgamVM6jauR3lifmorD+K91YlICpIJiAPe5zkwbbf67DdGNwC/VbY29iX9RQUkYNQuX4XDPMykDNHD23rDzASGX/1s6eRqjA/SVt97Drw50h+Px9LvccjyPAx8ltisGKVHEdqK/DRG7vRMoemQ/oCw2V2n2D5KodjMWu/iZjp34KSLy5hxGAZHsZXeD3tRRScn4qCqjqiG8/gvHozPhLrEGnaz34A14XvoK4uAyNL/h8azZuKs1GMNGzRhUNddYzUdSKO7DqKBgfhO0uHymkHynJ+DZj3iuTT3crKeAwFUaewXcdvRH+2Cjtf/gaJ+RWor/pfrFL+DEGjXPl8rHGmn33RGxH7aGgW0KeRpNnDsUSdCgV+jZyyWuxPDkUXy0vAVoeH92BjBuLsfwfVHiNiSN71lflIrPwO7aPNPmSiZetHrj4i/sABsToZRfyNPQK2NOYkdjmzVdcwLHmb2tk5VFZfwpS1hTiU8yR023bj0yaieyK61BSSDA2zz0j4txzGFyYPDPYmHfqyTbZ2Sx+OXvsD5hdcwNSCStTX7Ybq/JtQf6TDgDChNALgO9p+z9o+ylFQF30Rv/5DUv4EeJvvE6xbJdpCFkBNrsOcHJTVFyA5bEjv9LJPfQjB3k85sy8HnNnuWLu63hDWnzthEyb7snTLvVf1FGpLt6rboNN18FhM+wVSzpk+aCk5BtOIofAOicOyTbblZ3vfC/pqV75vsU/DF6OFzP0+pP+LwWUMxsfI0a434BI7cR2GgWECO124YtSj/wal21m0tF+Ce9giZNEtiDprsGttAQauUSMtPhDuLiPgSxQgSO5NQg9zMJEKdVo8+2ity+hxCLQkTZ8KD/MbuhM9rSnE2swzWJzxLOLlbtBra6GdNBWPBQ6BqelLlFzxQkvdICRlzob36VqUe3vBc+gN7r7isXgp/VcIlw2CyzBPjPaOwAT5ENLHVCL/9/vgn8OXD4MwetwDcGu8AKPDRP15VPzlf7ABydi6NhGB7oMwzJMUjDrpwFgkvxBO6vN1t4KzAJdf68jksAWti1OxnOQzRH8SVdpQLHjMn0jOntF4dOpkuOlPob3TgxhROj+VYS0PAdVxlgfdkLtxAldnIZjzNeLhlgZcSkqFkjiL6nLiwz3d4TEpEYkDT6KkzBvyMXTnVus9Uvk2JOe0psewXDkWBu0pYG8lLvxyMZ+OHxd0OCnfANp+ZS043uKLmfMSkZz3F0zRFWCP/ypk2+jGOVwwCoymsbRL4fNSGhaFy+DiMhSeo+VImPAAkS9xxrteRWbrbGQsj4N8yHloq5oxaUEUAu2F7zQdgqkRn+7+P35zcS7dzQOf58vohtG+AfAO8scY+gHmUWGYqhwGfYsenaRzSc6aKzC9RTouZ/rZa73h0xG0Dz8RfSL3sM3PH+GCU5aXmK2Sq53aWBHWH3wEG9MXIkZObMIjGun70xBNOwh6n5bv0HrIwxZndfIQ9jf8nd0I2FL4485tlbezMvlUqH7zBNeu1CdgODyHdTrRJf6+9ga0+MZhXsJzyDtMZXDVxo8Zj+zE7/cEICd7JakTOeEyHOMCh6HxQidumPN2SMOuZn2SI0FMF232ZndmJ9YPtIRe6yWh130IwcZP9WBf9rAyObNd67qK9Fd3yCaE5N7regq1peek26PTA2g5v0T78fPwnZmIhOQ3cJhOkduU/zyO5GeL+2p2rUAaXG3uewRauJ9yxoCLJtLhH/kErb+cLLhWw8XnCbz40lgUJ22Cpu0qOUOur96PXf7P44U4fvNtG8W0Diboj+SOM61o6PLjgo3OehwoNivaBVSX/gO6pUvwtE8TNHl/hFLdhdR1SoS5c062TAeEPfUkCc6IUdEpZuZ0fyD3HYa/ah4msQ2zu6D79EOUmx0yC0KTsNRcPvJ784lqNAd4wcPulU+T7gByc4GlKxK5vUVNp1H+wSd8PuSY1c0PqcoIzrB3b0cu2xpuEJPDDt0MrHjaBw2aPKxW5uBa6u+wIExo8fMg+MSl4CWfvUjK2o82y3C9tTzs4WQtnIcHq2dpgkjwSGDOrKwVP4RNR2KgOx/YmUcceQfCj36Z2o7ig+KBlpHUMy2NaKfO5alQuBsbSdDXhUmrVljy5bbHcyYDNy5977lY8Ry/hZlZlksfZxvtU0zNJ1DePBJeHvbdjFnP5mPhJG7HB5Pu/7C7PIIrv7EWpTv0pN2mw6dhP/JWp0B9TYV1C8LsOswe0qHHTE4TOP2l6e56AGteeIIvo50+u4xD3IvL4FP8B2SZp8IcoHrtRD97rTfO7MNNWJ9sytuTrfI6IGpj+zA4cQZfB2sMqD3wcXcA5DQPe5zViXQ0Dv5GCBFbErVVEpjwHZzFzs0+gQYGbvXiusR3dt5Ll+I5651HbOyWl3nqbxBHN7GnED9yovwUArzcMUAsDRt6aisBBHWRBDy1h1BsDtCd2YlN+s58jZOXOXrsQ8hv1n6qJ/uywSwTMdu1qytBWH/uhE0IyL3X9SSI+ZXboNNDmL+Tkd8WItpSD/vy8/mK+GrOZ9qnIWFGqIn7GaQD8QsEeUyFkSpry6P4laihD4IsehEyFn8PdUEljEyZqxD5+CO8ctgppoPjIh3G3vdwKHEBEuTmoIFXNPbG2HG05yYhKq0UBr/5KCh5AaGXLxGVPAft0QYozI6VpUtskTpd9n9fPB5BHQNR3oaPsHVzM++QL0N3vApu5ilDgqntU+RuboDymRg7A7yOs9qvUYZH+LfWrqJt/9tQFw7i0+IcmDng6awpRcHBVn7EiMunvX0bkqL+C6UGP8wteBfpoSBOkUvdARcfRD+fisVN21FwhK4L4RySRR4OOMuDcyoB/iboavUkJXv4uinMwTC93uzMiBCYAznO1QWt+GTnP9AAfqSK/dYMpSoeoSSi4oJHEsw9QwMsa2fmpHzX+PRT52ASH6Re1x1HqVs4xvvxowWmVuzPzYdWOROxDiMIdnrWqUXRVnItX36WVvtx5CYpkVbaAb+5OShJn4DLF+1HFJ2nYxsME/2kdY2MRgTrzIlu1RRjS65tR+wii8bzGbPRpP4bjgit1eqFfvZKb5zaB8FBnwgsb3Mwb1d3e1t1ZmMsb3M6PKaz0DUZyXVcYMHVp6c87OipTg7+RgQhWxK1VfIr7bSsggVrn/BAk7gucZ3dRL4TNmNntw6yon7kr9isnYxnYv0AwTTs6aMceRx1kQ+ye7STq5y8LPbYV3/W2z6E1svsp9pg6IV9ddOT7drWlUNAf+6ETdiUhdzWp3pyOLbl7dDpTt7f/TuUk6xfBBLQG4tuEGx8NVFpwTQkzIi1cf+jixjv376G7+PBAtMNdPHnWptFwe11LThjugyDvoM8ABKnzRaz5uDPB7+F98NA6xcNaCNKW8oCPqI8bFFsFpYd/AW2Lp/Edxg0EAmFe+0J6G+4wyvAD5NStqMsPx1KxWho3/xvvFr7A7GiRlRXRjEnSgXKlBKRkKONX/TaAcPFK6SD/QB/Kaonx+MwwtAIXecAeHiNRJf2GzTyC83f3ZSDQ5NXdj/5WRiAoZ5e8GZpXYK+uhjFn7YDlvV5nAOjAY/f2SP4ey0QNNgDIZ7n8EXNObiTfDBpJfLL3kS6MgZjtNuR9mo1LnKJd0MX8KZYLyzWo67lPDFxO3k4OFtXVhfBPJhz8sa04R34xuQmoHQGfFvd0h34MgcGzJSb0KS/yndudPTLC7riT3Dedyz0iZHwbjqJNh11LgrMijE7zaOQL45DOHW05nx9jThBCixaPjoFpOVH17gCYYCHFwK6GnCikThNqjvvbob6UJTV07I91zg9o2tb/kIcFHHwQSMMaNAZubSgQEp+IfLTlVCM0eLNtG2oFeyxxNPpDobDMPTECeg6LqCdjW7Qlw924/U/74PO25so93GcrMhDivWLJ+2NaDkjNlrlXD97pTcDROzjq0/wtqA+me0kAiHuTajVG5zYqg6dzmyM2eYpHNQcY3pp0ldjz3YNTg/lA2XEINz9O9T0lAcrnxVidao9LeJv+AMzTm1JzFbbYKTTgfxUHFvrlL4BTXNX40XiE1xFdekaP41oH4gJ+bGL0J5oIfWlevN3bFIfxeQ1z5JAwlUkDXuc+VVHOV6v2SGsi+agJXwgamv0uCFat04W9CHhIbjXa0kbO/E1fBaCOO1DCDZ+ajC6DOL2RV+iccSJ7drUVYdqEf25/TZB2tWmLG242Id6irblbdFpI7cEgA8kLQjpjaiv5pcR2KchYeEeEIsrRo7zh1+7ESNiZgoP57LpjH9iw/woBAdHYf7BYOSsSYDcZTQi5k7DlczpCEkqwOkpz+K3UwLg+00rLhHnLnswDiuQi0j65lDEStJZzELBtkX8VOt5tNTpga8+wwl3X8gGyjEjcwXG7VkCRQi5PqUIBsVq5Cjl5KmHdDQBoQhiZbuOc61NaG5vQBNGYJRnKBIWX0bmtHikFA2FUjUZMjRCa3CHt/tQyGekYo1sL6ZHhCBEsQVnorNQpI4XCDRc4BEeh8WTviRppSL/dChiIlyJJfBPlqy8LdB+9lfklQzGzAR/nNcOJEbdDPfAcQicsQJZ4/YhSRFGZJSKQkMM1DnzHKZE2DD6wZcxn5QnOGIFDj66CmtmyOFiLw+H8rmRuojk0WWAvr0Z+2qGIiZU4AmcGbUHIoJGcQp5rhXaZj2ONwGyUeb2PoejhR/gZEQcxv9wAl1fafCJYQgufmm1RpF34olTOSfPnGL7l/ig3EjS8RAp3xyMrjU/wXZ3fC7yBKxZMwrF0yMRHDIPG8/EYGvRasSzp2V7vBCewOtZyl54Kn8FhQzQai/Cw9udpZWZNQZ7kiYjJPhxpBQaoFCvE/hkhPN02HolbRc6S97HvmsyjI+chpQrmzEt5HmiD49h+W/j4OZ7Ck2XhsOlpRoHNzyNiOAQRMw/jEdzUjHDIT+CR0/62Tu9IZUUtI/Nv3DB50L6ZLYTeRvKD3WQ9hnnxFbHwuTMxmxsMxZJ+d/h4dlK4ivALRXAVzhwYjACZc7yeMAxMBCpU868YdAK+hv+Ph7ntiRmq6RjI0Fbe1kmaddghMwrhpfqNWx6MYbZnLguXbZ0wjadnZAfW/M8ZMXJRDfCoNh4CtFb34E63jwCL5CGA878qr0c6bRflaAums60oK7dgK8ONJB6j8JAJ3Vr1XZArj+KQwYvjHJx4msEy92LPoRyydpPEb2KELOvMfBnU5rWOLddm7rKr4noz52wiUF2cveBrNf1FG9L5/3PTer0aB3z5/YjkkJ6I+qr+T7B2ajm/c498J1AE4wVf8U7mIb/FF2jch9iakDh0lQcfeYtrI8XedNNQkLi3oJ+vmT6LsgL7tw3IX/6SH3IXUXS6X5NP7WHq2jT/Alx2aWo1vwVuw0KPCsZrxUmdOq+wtHGKEx9dDR/TkJC4t7Gel2V1Fn+OKQ+pH8g6XR/p5/ahAmXDGfRXPwJvhwzHUvoq/H8L/c9dAQw+XFETP8D3m/eiZWbPhH4QK2EhMS9Bd3WLR6RSdu4abPVQh+elug9Uh9y95F0+l5A2jZOQkJCQkJCQuI+RBodl5CQkJCQkJC4D5GCQAkJCQkJCQmJ+xApCLxZ2EbfdFPuWCQXNkDoq1EWLJtnW23g/pOne+Pu7o37rbkOvWYt+5194kFwP14r7GV4X8q0H2PeqN96Q/p7km69FNZbMz3pt4SEhET/5ycaBBqh02yCigUYxEln7ES13upDuZ0N0GQns9+CYzOwo9p6Fwvre2chY8eXAh9GJtA9E/PzkaXwRYjvCOeCdA1D8vv5WOpn/rBzNyZdIZIdyvBTwB1hya8jf+kUfrcGe1whi1+LyvwUePf4cVqCvQydyFTiLiCLwxrSln42OyLcCbqgK0x1tPGbhurli0701kxP+s1DPxycMUvYD4n6mqvQ1xQjmz1kkvOFWocPMMPUhorXX0dhgxR+SkhI3Dw/ySDQpCuFWn0WiSWVqK87hI0+/8SKfH5bHlMrNFmpUOufQklVNQ6tGYa8FQX81jf0swLEKfP31h1aiYF5LyHfvM2VHfZb4XRjHk1YC42e2xqMfbg4MgwP2nSQ53Gk6CSm56/BYrrhOH/21kDr8gZ21Dh0H3cOtvPHGH6bOyGcfZy2ZxkKy1QYU5sGf9pRQ1LtK3ZyZCNeccjQnOKOJXhoW1YhMjzASeD0Y6BvGsYhOMPuDUNjFYqqpiB/7QKEi30EuK+wD8w601ueHvX7PCp2lcM3vYj4khxMLt+OnVVn+N/EfY2p7RO8tuwfcFlRiLqylcDmvai2Hl2lgeWmIhhm/weUgbdH2hISEvcHtzbu6Bfw+9C6BWJ8AHGQLjKExUwAN85EHC/bbzcQqctmINDdDbKgUAS1X4Dh0g3mfF9Xf4yg1GTMI87VRfYQIoLIU7nhMrvbFm4f1+69Ia2hownrUF+/DvEyV3JMv7Rei4CohzCKu4BnBKLT/nAbHDndA3YvNm24gvF0f927BNsxIeARBI2iMhDA6dfce5KhmEwFIJ1m0abdcB//AEm1LwjIURaP9fX7pQ9028MCopGIChrJn7jVjEX8+v2oXx8PGX+G4RGNtKy5xJZvnStjDxdBTvSWp0f9pvadvJjt0uDyL2MQKB+PoHHD2C/ivuYsavcW4FDiUjwXLUPntzUoZ3fwsC3JDsM36VnEy6UAUEJC4sdxjwSBRujKdyAjlk7f/g7ZryQ7WYfjilGP/huUXe+jYI8WnabTKC8xYZUqEh6mZhze/TGwlN8vmHDDeAGNbO/Ui2g6/CEKMRdLE+i2VvTHTlxo5PduZFdbQ/ckvIzEGBeUJtNpGzqlY/tnKSPb8xVWwQ6d7tEgj58mClZtgobuL2lZ50ZHmpqgr3gDquBYqOhejXT6ZxOdwrZeA0c/Gl2BQvPUdnAK8mpaUJO3jP+O4DYkzdmEvK3c2iW2XqvtJDcVnlwI3TU9ajR5nFxpPtkafq9IuofkTv68uTxiI1+kbSoK+akrcq3KvFcqDZI/I5UW24KK/4goBkL3t+X8vbwczOvLyJ+oDB1kKiSLDnTW7IAqYhYy3y9DbtIL5Bwd0RMrszUGOzn+Fhmpcdz1NuveHNM6VvEW4lgZ6ChmBz/lx7cjfxfdq7qiMJufCrT7zYxl2UL3mkm2fICme+qYla60kuQ0XBls6tJLu7HoHZV3OdpYWnHcWlfRclJ5l/E6nIK39hwmARGd1r9qqa9lrSz7tuUsKx2ylVlsxh40sDLbtWFsJgobOixr9Gx03ySsu9dr8nqWvQNWclK9gT2fVyPAordCekX3fO1Jv83Qun6EvKz3gWXpWBBGRw3JvU59zWAEyb0xVF+Bt7Z81L0XtiUAXCS+9ZmEhIREH3DqvvoHRjQUvgzV1nOYWlCJuoJfoG77eafrcFx8FFiweDjez5yFiKQieP5nKttHkE3flsms7qWjSdVoxnB4Dj1Ngoov4W01ssee9JvdMNpzqKOg6ChWaTAU4ZGYkZmOpSkb8F5ZDerr61FfV4IsxURLPizfxlCM96OBJ50Gehnzlh2A68J3UFdfg0MqI9TqUugG8OvcvMcjyPAx8ltisGKVHEdqK/DRG7vRMicDOXNIjMRGJknn1FCMdapc6MIzUcXyrMWuzzsQsiSD/D8Ic3IOon5/OpKXvY19WQnwnumDlpJjMI0YCu+HTTjx+h8wv+ACk2t93W6ozr8J9Uc6kvIZVO3cjvLEfFTWH8V7qxJERnj4ttnShHB1Cer2ZUFx5AA+byDlY0FaB2LGjxFRMm5j+3b5Awj/9WaS/yfI8f8E6sIaGOlom1MZ2h+LyaIFbmELoCZ1J8JAWX0BksNM4mW2wRNhNnLcjPWbP+TkaNER4fpXevwGGvp/cq9H5dvINSRAnfNLHNGe5ja4p535ujRs0YVDXXWMpDkRR3YdRYPNXDWdSjwEz4S5IE3OQ+rJNvh/BEE+P0OyhtbzUUR6HMX63IuYp87EnCPfofUi/fRnH+yGrq9kaU3ETP8WlHxxCSMGyxDidRpFguXk5f3sB5wO12VgZMn/Q2NMEIYfKcI/PKdg4ZzhfOIEtudxIK9DNLj+HVR7jIghMquvzEdi5XdoN5E0a95FimoPLsSsQVV9BfITz0DXfoONCDPZevPrP+mSjjX/gWUHhmBhEbE5K90dEJbsXPYOcHJ6tngQS6tOPQYlG87xeiumV0243qN+E9jDTCSmJf0WG5pGYsLD/L667F4xXzMaYbOTMaE4CaGKl9E2dQM2LQnHEP2X2CEFgBISErcYUf/VP6AdQyHWbnbDmuyVbPrDZbQvQrz9IB8j/P13E3WW2e/gm8fW41D+Skw68jWOt10iv/DTxHikew0P74xBO1XocLTMDTGWNU3cdG8ZJggEQPwoVoAHDGVbsO6Tf8XytESE8c7Zdq0g13E3JkyA3JUcsWmg77F4aya/DnAQRo97AG6NF2C8YR4duwCt6TEsV46FQXsK2FuJC79cDKX3OVSX+3Hl6azBrrVb0Lo4FcvjA0kncRJV2lAseMwfrjadLi0CV8/24+fhOzMRCcmvo2RKC7L2BCCHlytchmNc4DA0XujEDYzGo1Mnw01/Cu2dHghLThfY85Fvm8wzWJxBp6bcoNfWQjtpKh4LHMJ1/I0TMEFsOppNBfshS73CKv/uwMGZDB2OncmCjdi2Q8GmjXsosz2CcmznAylnaQ1go0RXHj6LukuzkUna8XT11/CWeWIoDYJ2vYrM1tnIWB4H+ZDz0FY1Y9KCKATazCrSqcRFCDNqUe4dAN/RVLds11AyGV3xQkvdICRlzob36VpyrRd5oLnBla0vdkPTKmvB8RZfzJyXiOS8bUhoyhcuZxeVdyl8XkrDIqrDLkPhOVqOhAl+GB69CC+EXUFN+SD+hSnrbaMGkXIVYf3BR7AxfSFiaLt7RCN9fxqiXUhwtf4zRGxMw5IYOQmWSP3TtyE9egQpnfXSi+vcko6m+dhqXgdoo7vcCJ2w7O3h27B4LF5K/xVLy2WYJ0Z7R3B625ONOdNvCnuYKcN7rywlfigHvzevSz570qmvcZHFIK3gMHmg/ADrF0/EqLPleCO/GZOXL0H0qA5U78hALB2VVL2BilvyMoyEhMT9Sj8PAi+guvQw/Nc8izgf2gn2sA+hqQFFf3gH1xMWYW7YOPhEL8SKpXpsKKiAnjjatuYGwM8f40ZyvS3X8ZEYkHSqD+ibUYmxCBrHv+RhCRCF8uJHsa6cRvUnH5P7XPg1hxQDag98bLVWkF5bjwQWOHDTQIcmz8dToebF5PxoZKQffFyv4kxLI9rlU6F6KhTuxkYS9HVh0qoVWBDmYdOZGqv3Y4duBlY87YMGTR5WK3NwLfV3dtdxpeLqKcPSFQv5UQQ+mEj9DS9XetFpnCg/hQAvdwwggalPXApe8tmLpKz9aLOfKWXQtvkHdEuX4GmfJmjy/gilugup65QII3EGLUNpQvdIhy0C7WjqQGvDRTYN5u5UhhTrY5KWqCyIjG3WHTors3057ctIAobaQyi2BKZO0hpyiujOEeh+GI+nEoNIO9IygAsejbUo3aEnbTEdPg37kbc6BeprKqxbEMaNEtlgbqc5mEQq3llTjC255rrwgYMOCHvqSQS6k+CS6CSYzH7om92Y0/KeixXPRUNGRSFazlCYiLx3+c/HwkncXqwm3f9hd3mEJWDn8vp3KCeRAI4EUru3fMQHrlRm+zA4cQYm2Yxm8W04+EnM49O0obMeB4r54Jst6TiGyap4hJrbjOluByL9RsGV2a2I7LmrreD9i2oeX54u6D79EOVMhkQEPdiYuH5bQdckz12OjFWT0K43gD2OtvXe15j0NADU46nls0gbG1Gz/Y94+oAfNpZVYl/iN/jjP+pv4mUnCQkJCY4ePNhdhjlwXzwewXcMNh0Ku8IGFuw0RuCxEHOA5YkHwx8Bzhhw0eQKD6+RID0FCbbob1ygUeb9JJ6J9YOrhxcCEAg/H6sOv2w4lM/EOOZlGcVKR9LUiWguP4FmyzIsrvO0dDrs2iHwRzNq9ZdgvGBEUMRDXEdLMLV9itzNzVg6Nwoy1hk0Q8k6OHIr7UxBOuZnaIDABwSs7pehO16F9vZtSIr6L5Qa/DC34F2kh4LUk15XBreY8fBjefAdvILvlClsEf9Aq6ks+sLMX7FZO5nJgp1z8UH086lY3LQdBUJvR7M0jqM9NwlRaaUw+M1HQckLCL1M1zRxZQ3wN0FXK/TpG+u60GMqbw0KDim4NVJOZXjV7tjgRBZ8QOIWzk0bOy2zPfZy5IM+c2DqLC020jMRqUsfh48LXwZwU5nspYP248hNUiKttAN+c3NQkj4Bly8KdOWsnnzQ11mLvQUHoLMECuegPdoAhTmQZ9eaA036/97bDReEHCdp0WCTu0C8nGeJXKoQ+fgjpG7kQvrSzdZ8u4Dd3LYkMN37Hg7qJnB1cNA7guksdE161obdsqZchV7Xik7SMlwwxgffbO2cHyKCRtnp7hOYG+PDj7IJy94BGzkRHWz4CFuJLXJ615ONOdNve6jv8eZHo4EBvfQ1tgEg+YHZBbAqYxGiRxnYyCz30CYhISFxc1i5nH7IJQP07fSljWvcNO/rb5EOxRMPk87/C/oCgR1syquLPKEfaGCdR6fuAPILvuad6yCM9g2Ad2sr2jq7oK94F+s3tELJj5Zw02Wn0dx2keRVgTfX50GnXIkX4sbZCYnvWNioijtGBT0CRdnX0DbVYk/eBzj22WHS6cQg3P071Oi7+GsjMbyjFaZhbqQz8CDO+yT0dA2UToNN6RvQNJcEkyRAY0GsVoFZMbST5Doay6JwPiCY5mvECb2JC2gnrUR+2ZtIV8ZgjHY70l6txkXW0QIJIQNRzzoofjrUOgAY4A6vgIvQnmghv9KXQP6OTeqjmExlMboeeSnWLxfoUddy3rGjY2n4YVLKdpTlp0OpGA3tm/+NV2t/6C7r8A58Y3JzVDL6e2kUvyieLsp/F+uWfYYpW59FNB2BYR23mAwHCMhURBZ8R46Eh+Ber4X+hpMy22MvR1YnEmSFD0RtDTkWrf8FGL+tQaVyJmJZsMaXYaY/0HQWN1gAoEBKfiHy05VQjNHizbRtqL1oL2ErPfPrQMXfv4ZLEAlkQjxg+KIWekMjqiujLEE7C9oQCTnaoL/YN7vhpr35QI0/xQUqQuWk6w2vcS8wsBcVSGCMQQgaYUADTZtv++k/98bZilLUuozBYPjB03AcNWcGEpmdwkHNMfY9PJO+Gnu2a3B66DDWhs0HD+IoDfLpSx97duLD064YwgfjSAyFe+0Jvg2bUaU9SyUEnSYH6SsbMXfjQjZa6kz2wsEaldMVEgB+gL8U1ZPjcRhBZKvrHCCuVz3ptx3sQa/kX7H0ca6tevY1NCAtxqYCI2abA0AK84djSPBoQkPRFqgP/az7oU1CQkLiJujf/mPUo5ibYkTmtDgk5Z/BlOXPYQrx7d80mchTOBsjssVjEpYXPAMUJCEiOAQR03YDqmxkxlPn6kJ+VmHL1DosiwiH4vfNmLI9h/+N3huJpC2ToV0WhRC6IHvKyyjIjONGO2ywHukgAvSfiOmKf0K9tQoPzn4Cwy+0oB1f4cCJwQiUDSR++wLaO4+gZlA4Qt2HQj5jBVKv5WByCCmf6gBGqF7DphdjIHPhRuwsIyp8R5M4NZhNE3IjM1/ig3IjZKM8WDpZ4/YhSREG9vaoIQbqnHmQk8BI2zwM+vJKGGTD4WLplLs7eLjIMWPN85AVJxM5hUGx8RSit74DNZEF6AL1gy9jfkQIgiNW4OCjq7BmBv8GozU0jcwVGLdnCRQhwQhOKYJBsRo5ykC4sM6qGftqhiLGMu1thfuDSFhhwpZIkkdwJFQ0uCp4FcnszUl+SlxUhgMEZSooC5cLaNV2QK4/ikMGL4wa6KTMXMm6OWcrR1Io1LUb8BV5wHAPHAUX0fqPQi0dJbKM9tIynEL78dMASWegPAGZWWOwJ2kyQoIfR0qhAQr1OoE1l7wctAeRm3cY7jN/Cd/zZ0ldaqF1H4ehtSRADAhFEJvGvE6K24Tm9gY0YQRGyfpiN9YPNd1lcBEtpzfCE6bhSuZ0hKTshafyV1DIAK32Ijy83WFicmrAZ7k7UOL+OBJ8L0Er16NaS9rSJ8hKZrGkbN/h4dlKRMvs9DkpH988PBOLon3gYjqPljo98NVnOOHuCxlrQxWuqZ8g5SK6c8ALqvdewYv0Wt42xWTv0MYeoUhYfJnIKR4pRUOhVE2GDI3QGtzh7UyvunrQb/Y2NP+2ePAsrN4LLHglpfuFDqe+hj6U7cZf9sqQ9GI85NbLFGQxSMm6BrXiMUwvHoG0rcvIA+wZ9v3EuLyb+QamhITE/c6A+vp6+mgvISEhISEhISFxH+HwcCwhISEhISEhIfHTRwoCJSQkJCQkJCTuQ6QgUEJCQkJCQkLiPkQKAiUkJCQkJCQk7kN+MkGgZc9Qm31dJWyhW3alcG8t0r2DnYnJsp+s9V7F9zvXLfvYiu9dLSEhISEhcW9wbwSBbA9OGpAI/MXloeY63f50Cd7PT4Gf5aO1Eo54Iiz5dW7/2xBfjHYmJrqfLN3H2E/gQ7vsExjzkLHjS/a9t/sHV8jiX0T+0ikiO1A44yr0NcXIVnGfDonN2IlqZ1t+2XxmhPz1FLRLSEhISEj0kXsjWqJ7cJblYA6CoMz5BHX19aivr0NVySuY86AXPNgn8+mHYesRadmP8y7BAtY4ZGhO8Sf6GWx3CPP+t9aYR7nWQqPnvjjGvk0YGYYHbYJqE4xH9qFq+itYu3iiZeeTW4WpTYM/7ejH3zxj310c073/dC8xtZXjwy/9kJT/Kar25SCx9U2sMO8lK4Cp6St8PT2f13Xyl6eE/K5b61W0ad7AjppO/lhCQkJC4l7m3ggCCaaLBpzxfoLbTcPUgD07voApMBrxT8q5ES22f6hH92b/dwsasNbvx/r4sfyJ/gW3K4l5/1tr6CjXOhJwrEO8jO6rR/c0rkUAv9VVNy7wiF6GLGWQwF63PxK6Bdmm3XAf/wApTf+EBcZBjyBoVN9K6OLzOBYvokGzC9zlCiRMkVv2knWEfjj8C1w2duBsvxn9o7tY7MWmDVcwXj6EPychISEhcS9zjwSB1rtpdKKh6K/4YpwfPDAWU5U/ZyNaLLjBL4Q3yLesb0vF3yvKsSNjFvl/LFSbyqG/av6NrvMqR5tOg2xVHJILG2Dq1KGiMBsqNiVHrs+rBjcGQrd8q0BhdjK7Lzg2E4UNWvblfu64e12iSV8DTV4GYlkaycjW0C3tBHBWRj4QEE6rEzV5qu58205CQ8slOH1Iyn26CY2JEXAv/S13j92fZa0bGzGEzU4jPeafoUGbvhyb6JSnim49R7fne4PJr3sNnZ3sglOQV9OBzpodUEXMQub7ZchNiuZ/I3/2dbqmR40mDxmx9Hcin2wNdJYt7gQQakOTHtU7zPWgf92jn47Qbe12cPmp3sCez6sRYL3nsUNdDOwu53TBeP6aZS9ZB4xVKNxciPdfXgDF41S3xMYLzbKPRfLfy3HMXCdSzgrLVDMpf0WhZRra0i7VO3kZ0j/rkWuh6ztIPssQMf0PeL95G5LmbGdLMKhsy3l9iM14Ba+oFnDrR/skXwkJCQmJu8W9EQSygORLtll/ZHAkpmd+g8Bx1iNZXJDYaLMBvRWuYVjydhYU3udQWX0JU9YW4lDOk9Bt241Pv38YyZoSZCkmYqZ/C0q+uIQRg2UI8TqNonVp2KILh7rqGPZlTcSRXUfRcJ10/DXvIkW1Bxdi1qCqvgL5iWega5chfv2H3Ho7fl0i3QD+tbQXUXB+Kgqq6lB36BmcV2/GR7ouvmBWOCtjU5eTtFwRlvw2l+9MH7SUHINpxFCRNX90W616JCh+hnC6JdbSlXjlvTJuyrGOk4F5mpgF1Y2hGO/HBdV0mnbNvNU44PoMiurq7fJ/HflLJ0IRdBZ76Yb3K1TwO/I1Pv/oHeS3/BLqnF/zo15Edg3FWKfKhS48E1Usz1rs+rwFbmELoCZ1wJwclLEp0GrHOj1swonX/4D5BRcwtaCSlHk3VOffhPojHUlZALq3rVAbtlVh58vfIDG/AvVV/4tVyp+JjOwZ0VD4Mp4tHoSFRTWoU49ByYZziBlP93YWq0tTj1PZpraj+KBuGn4rtB0fxSMa6YcrsW/7asxBITKzSkXWA7ojbMk6ku9wXKmsQfuUNfj0UA6Uut3I/bSZlJArv2pLE8LVJajbR/TryAF83tCMqp3bUZ6Yj8r6o3hvVQI/gi52/WCSTwbJJ4g0z0HU709GWBcn261MH4+hIOoUtuv4EeazvZWvhISEhMTd5J4IAllAUjYRWfuqSXBAgq6UWEywmZLqxGndZSRMEJtG5ILEMvlUqH7zBOTubhg97gG4YTg8hw3k02/B8RZfzJyXiOS8bUhoykdm62xkLI+DfMh5aKuaMWlBFAK7arBr/WeI2JiGJTFy0g2PQHT6NqRHj+CDVfN6u/M4kp+NPf6rkJ3G7QHqMnocAt3O4YJRKExwVkaD87TMQfLx8/CdmYiE5DdwOD3abs0fga1nG4QRhkPIXleB8cuXY26YjCmB7TQxCXDoiGHCBMipQE2t2P/6m2hanGVZB2iTP0tXjytaVzy2fAZJ/3s04wgOXvg3LFeOxelqLTfq1Ulkt3YLWhenYnl8IIboT6JKG4oFj/mTdqNt2N49OuZQp9dRMqUFWXsCkJO9EvFyUjuX4RgXOAyNFzrhuPehATW7XhVuQ58wTFUOg75Fj073cCRnzRVYb0eD/UKsLR6Ll9J/hXDZILgM88Ro7whO95zWxQl0yrugGbNeWYgw631hHfCAPGYBlqWSwLjxAowimztyujsOU1S/ZjLh2oXojqcbLtPyZ57B4oxnyW9u0GtroZ00FY8F+uHRqZPhpj+F9k4PEsSnQykfxNVX8Hpa33botIF8sMjJdvPA53l9JPn5BsA7yB9jaJ1G9Ua+EhISEhJ3m3vANfPBkcK8wb0bPP5VznU2ZmgQUhossM6Nhw/Olq5I5Dteut6tGs0KurbrGpe+91yseC6ae9HBWIvSHXpy/XT4NOxH3uoUqK+psG5BKEzV+7Fj8JOYN4luWG8NCRpqD6HYHEixwMgPqUsf5zeGJ1c0n0B580h4eQiECc7K6Pat07S4QEBG7l3YvUm9AyYYa8pR3H4J+mpSzsqrRJTmGhhQe+BjfrqdnjOPGJpHBcux+9DPoHoqxLIOkMs/EH4+bjCdaUFd+4MkEEkgZTfi2+qvgUnJyFgQBncmB29M//lYdFLZ6WZgxdM+aNDkYbUyB9dSf4cFYZ68vOh13PSzY51omY4iKPU3iPPh68jWgZ5CgJc72LtB1oi2ISmTyzjEvbgMPsV/QJamlUhGiAuoLj0Mf9U8TGL5d0H36YcoZzIiyTuriximNlS8XQrMe8ZJO1kzEMM8h4NUkH/5yR7ONrRLl+AZPl+uXSaQYM2VlP8f0JHfnvZpgibvj1Cqu5C6TknayA0+cSl4yWcvkrL2o40JgNZX7HpSX6o7QbwNUtnuegBrXniC10e+bczT5L2Sr4SEhITE3cYcBfRf+BGh7ulNd4TNjYfcxYCaHTtRYbzGdVABPoDupOAnS2xHuWhf/ClyNzdA+UwM/EHTPw5F6hxM4t+CZYv/248jN0mJtNIO+M3NQUn6BFy+aITueBXcbKadr0Kva0WnuRPlAymWhlu4ZTqVjabl5kOrnIlYgXWLzsr4QJOztMAHyf8O5aQR3O+C8B11ViZWJU1DTHM1TjTz09J8wGR5Y5gFZEOIbJpRq7+KG8YLaAwKRZA5cDHnv3Q6YmRcEK1VzsdToeZgDnwwax083GCya2/fhqSo/0KpwQ9zC95Feihw0cQHqJY6mgN/qzpd/x7HSwfyU7GUq2jb/1ds1k7GM7F+Doos3obcKKyLLBrPZ8xGk/pvOCL0XUlWD188HkGDfTr1+xG2bm7mZUTfRBerC3+/PTQAfHcfDLP/A8pAhzFaEa7hosEIhWUNoh38g4Ol3az14oEzRF7H2RKKqLRSGPzmo6DkBYReppPyBBcfRD+fisVN21Fw5DwvX7Hrqe6U8XrPt1VkNCJYME5HTIuxJbc7gKf0KF8JCQkJibuOUNfSj+BH18pk3R0dPcteUMjCi2ceJAHXD1xwM20UOr65gmEONSJpnG6Clp+qYmvr0jegae5qvBg3Di5smmuCTQc2wMMLAVAgJb8Q+elKKMZo8WbaNtRedIGH10g0HzyIo3ThvUmPmj078eFpVwzhg5/E8IGordHjBk2jqwEnGo3suup3N0N9KMpq9MQa52V0dZoWP40qFiiYsR5pG/UQohQNOKptRMOe7cjbtQfFiEG4+3eo0XfxgVskhne0wjTMlZMHnRqkde5sgGbTGqxsmoaNSZHwMAcis6JIWfgAQT4bCeE0mOUDz2njYDxxDu5Edpi0EvllbyJdGYMx2u1Ie7UaF/mgCgkPwb1eSwJ5gToNcIdXwEVoT7SQgJsE3tV/xyb1UUxe82z3yKAVYm341advIcXygg+hvREtZ8S+19cBw8UrpMof4C9F9eR4HEYYGqHrHMD0QLguAlCZbf8nMHMBm7I16SvwrkZgHSPVpwMaaA7UEBnQOhYit0qBTLG1g0x3vSEfQ6JtGmS+xrfLi0QvXKm8/DApZTvK8tOhVIyG9s3/xqtffYK3U+jLHubc9ahrOQ8Tk6/A9bU/8AEiaZ6QgaivbSOB6QW0nzGQgJeWcTde//M+6Ly9gdbjOFmR1wf5SkhISEjcTZyFDXeZ86jIViJi/ss4Ajqi0/3GaIhiPlZu+IafrrwMg96Izn1aDIoJFvhsCTeK0V6WiWkh5N55xfBSvYZNL8ZAZg5azNNcPC7yBGRmjcGepMkICX4cKYUGKNTroJR7Qk5fqBi3D0mKMAQn5eObh2diUbQPwKZEDfjqQAPcA0dhIEljzZpRKJ4eieCQedh4JgZbi1YjXiBgcV5GrjyiaVkHd3xqjtjV0+UB/Hx6IN5X5+HQg0/iiRGX0Y6vcODEYATKBuIS7eQ7j6BmUDhCSVDK5JHaBfVkUueIVBwY8Qze25TCpjRtRzD5oC9xMruPCx6+RNkHX8Io80GgteyCU1FoiIE6Zx7kLhfQqu2AXH8UhwxeGNUpUCcXOWaseR6y4mREBIdBsfEUore+A3U8CeT5S6wRbsP/wi+gxcENT5M0QohuHcajOamYIXccmYVHKBIWX0bmtHikFA2FUjUZMjRCa3CHt/tQWz2wqQt/vxn2ckoq0df/4a+l+rsL7kFjSbn5t3vZG7g0KCPt9NVurFw+H4qQ55GvfRBLMxMRyJYH2MO3aXspKWM40Ytnsceru12YvDJXYNyeJSQtYjcpRTAoVmPzL1zw+cGXMT8ihLTlChx8dBXW0CBT5PocZSBczrVC2zwM+vJKGGSjIYuYhpQrm4mukjKefgzLfxsHN99TaLo0HC4t1cLyZd/PVCFP+saghISERL9hQH19vciS858IxgpkT98FecEGEsQJdPb9gXuhjBK3AW5EM3uLG5Zt7evHoOlD0nLkyrOQSwM1/qyEhISEhERv+Yn3HcIjff2Le6GMEreD6zXv4j92AgtfSuz727O9GgGWkJCQkJAQ5yc8EngKmgwVVr7fzB3S78+tj4eMO+on3AtllOhf0O39/gTFyr/xx79GTtl/87u8SEhISEhI9J6f/nSwhISEhISEhISEA9JMkoSEhISEhITEfYgUBEpISEhISEhI3IdIQaCEhISEhISExH0H8P8BKZ1Em5JsrJoAAAAASUVORK5CYII=;" parent="IhLaBUIPt4K6v4suk_7A-1" vertex="1">
                    <mxGeometry x="105" width="641" height="72" as="geometry"/>
                </mxCell>
                <mxCell id="DSCbmLKcaqifv2AQVB3l-5" value="" style="edgeStyle=none;html=1;" edge="1" parent="IhLaBUIPt4K6v4suk_7A-1" source="1WltymizTbA9ynMsE1lI-3" target="1WltymizTbA9ynMsE1lI-331">
                    <mxGeometry relative="1" as="geometry"/>
                </mxCell>
                <mxCell id="1WltymizTbA9ynMsE1lI-3" value="inicio" style="rounded=1;whiteSpace=wrap;html=1;sketch=1;" parent="IhLaBUIPt4K6v4suk_7A-1" vertex="1">
                    <mxGeometry x="591.67" y="72" width="120" height="60" as="geometry"/>
                </mxCell>
                <mxCell id="DSCbmLKcaqifv2AQVB3l-4" value="" style="edgeStyle=none;html=1;" edge="1" parent="IhLaBUIPt4K6v4suk_7A-1" source="1WltymizTbA9ynMsE1lI-4" target="1WltymizTbA9ynMsE1lI-331">
                    <mxGeometry relative="1" as="geometry"/>
                </mxCell>
                <mxCell id="1WltymizTbA9ynMsE1lI-4" value="dias&lt;br&gt;distancia&lt;br&gt;pb = 2.5" style="shape=parallelogram;perimeter=parallelogramPerimeter;whiteSpace=wrap;html=1;fixedSize=1;sketch=1;" parent="IhLaBUIPt4K6v4suk_7A-1" vertex="1">
                    <mxGeometry x="576.67" y="170" width="150" height="50" as="geometry"/>
                </mxCell>
                <mxCell id="1WltymizTbA9ynMsE1lI-5" value="&lt;h1 style=&quot;font-size: 15px&quot;&gt;&lt;font style=&quot;font-size: 15px&quot;&gt;Formulas posible&lt;/font&gt;&lt;/h1&gt;&lt;div style=&quot;font-size: 15px&quot;&gt;&lt;font style=&quot;font-size: 15px&quot;&gt;p_sin_descuento = pb * distacia&lt;/font&gt;&lt;/div&gt;&lt;div style=&quot;font-size: 15px&quot;&gt;&lt;font style=&quot;font-size: 15px&quot;&gt;p_descuento = pb * distacia * 0.3&lt;/font&gt;&lt;/div&gt;" style="text;html=1;strokeColor=#006EAF;fillColor=#1ba1e2;spacing=5;spacingTop=-20;whiteSpace=wrap;overflow=hidden;rounded=0;sketch=1;fontColor=#ffffff;" parent="IhLaBUIPt4K6v4suk_7A-1" vertex="1">
                    <mxGeometry y="290" width="230" height="150" as="geometry"/>
                </mxCell>
                <mxCell id="DSCbmLKcaqifv2AQVB3l-1" value="" style="edgeStyle=none;html=1;entryX=0.25;entryY=0;entryDx=0;entryDy=0;" edge="1" parent="IhLaBUIPt4K6v4suk_7A-1" source="1WltymizTbA9ynMsE1lI-331" target="1WltymizTbA9ynMsE1lI-332">
                    <mxGeometry relative="1" as="geometry"/>
                </mxCell>
                <mxCell id="DSCbmLKcaqifv2AQVB3l-3" value="" style="edgeStyle=none;html=1;entryX=0.361;entryY=-0.021;entryDx=0;entryDy=0;entryPerimeter=0;" edge="1" parent="IhLaBUIPt4K6v4suk_7A-1" source="1WltymizTbA9ynMsE1lI-331" target="DSCbmLKcaqifv2AQVB3l-0">
                    <mxGeometry relative="1" as="geometry">
                        <mxPoint x="405" y="305" as="targetPoint"/>
                        <Array as="points">
                            <mxPoint x="520" y="305"/>
                        </Array>
                    </mxGeometry>
                </mxCell>
                <mxCell id="1WltymizTbA9ynMsE1lI-331" value="si distacia &amp;gt; 800 and dias &amp;gt; 7" style="html=1;whiteSpace=wrap;aspect=fixed;shape=isoRectangle;sketch=1;fontSize=15;" parent="IhLaBUIPt4K6v4suk_7A-1" vertex="1">
                    <mxGeometry x="535" y="240" width="233.34" height="140" as="geometry"/>
                </mxCell>
                <mxCell id="1WltymizTbA9ynMsE1lI-332" value="&lt;span style=&quot;color: rgb(255 , 255 , 255) ; text-align: left&quot;&gt;p_sin_descuento&lt;/span&gt;&lt;span style=&quot;color: rgb(255 , 255 , 255) ; text-align: left&quot;&gt;&amp;nbsp;= pb * distacia&lt;/span&gt;" style="rounded=0;whiteSpace=wrap;html=1;sketch=1;fontSize=15;" parent="IhLaBUIPt4K6v4suk_7A-1" vertex="1">
                    <mxGeometry x="600" y="420" width="220" height="40" as="geometry"/>
                </mxCell>
                <mxCell id="DSCbmLKcaqifv2AQVB3l-0" value="&lt;span style=&quot;color: rgb(255 , 255 , 255) ; text-align: left&quot;&gt;p_descuento&lt;/span&gt;&lt;span style=&quot;color: rgb(255 , 255 , 255) ; text-align: left&quot;&gt;= pb * distacia * 0.3&lt;/span&gt;" style="rounded=0;whiteSpace=wrap;html=1;sketch=1;fontSize=15;" vertex="1" parent="IhLaBUIPt4K6v4suk_7A-1">
                    <mxGeometry x="430" y="480" width="250" height="40" as="geometry"/>
                </mxCell>
                <mxCell id="DSCbmLKcaqifv2AQVB3l-6" value="si" style="text;html=1;strokeColor=none;fillColor=none;align=center;verticalAlign=middle;whiteSpace=wrap;rounded=0;" vertex="1" parent="IhLaBUIPt4K6v4suk_7A-1">
                    <mxGeometry x="480" y="400" width="40" height="30" as="geometry"/>
                </mxCell>
                <mxCell id="DSCbmLKcaqifv2AQVB3l-7" value="no" style="text;html=1;strokeColor=none;fillColor=none;align=center;verticalAlign=middle;whiteSpace=wrap;rounded=0;" vertex="1" parent="IhLaBUIPt4K6v4suk_7A-1">
                    <mxGeometry x="610" y="380" width="40" height="30" as="geometry"/>
                </mxCell>
            </root>
        </mxGraphModel>
    </diagram>
</mxfile>